<?xml version="1.0" encoding="UTF-8"?>
<svg version="1.2" xmlns="http://www.w3.org/2000/svg" width="325" height="325" baseProfile="tiny-ps" xmlns:xlink="http://www.w3.org/1999/xlink" xml:space="preserve"
viewBox="0 0 349 325">
<title>Sky Horse Tech LLC</title> <g id="design">
<path d="M0 0 C115.17 0 230.34 0 349 0 C349 107.25 349 214.5 349 325 C233.83 325 118.66 325 0 325 C0 217.75 0 110.5 0 0 Z " fill="#FDFDFD" transform="translate(0,0)"/>
<path d="M0 0 C3.2432402 1.52573918 5.04333863 2.95551964 7.3125 5.75 C13.95855114 13.49445708 21.27085675 18.0789432 30.16015625 22.94921875 C30.80855469 23.30483887 31.45695312 23.66045898 32.125 24.02685547 C33.83378242 24.91373135 35.60513153 25.67730984 37.37890625 26.42578125 C40 28 40 28 41.1796875 30.53125 C41.40914063 31.5109375 41.63859375 32.490625 41.875 33.5 C44.18863827 41.44349139 48.50144602 48.96098843 55.5 53.6875 C56.325 54.120625 57.15 54.55375 58 55 C52.90634937 60.09365063 43.22908147 59.38582472 36.4375 59.625 C35.06754883 59.68300781 35.06754883 59.68300781 33.66992188 59.7421875 C31.44680076 59.83530252 29.22366387 59.92112166 27 60 C30.9998593 60.08783475 34.99946704 60.14067102 39 60.1875 C40.12535156 60.21263672 41.25070313 60.23777344 42.41015625 60.26367188 C49.08788276 60.32224842 53.8967986 59.69134229 60 57 C60.99 57 61.98 57 63 57 C63.09796875 57.58007812 63.1959375 58.16015625 63.296875 58.7578125 C64.29903119 63.99321469 65.58620531 67.75861871 69 72 C70.485 72.99 70.485 72.99 72 74 C72 74.66 72 75.32 72 76 C63.74670244 78.88315195 55.6678988 81.63353125 47 83 C54.56421928 82.80828016 60.87582331 80.80691172 67.8984375 78.05859375 C71 77 71 77 75 77 C75.65104167 78.953125 76.30208333 80.90625 76.953125 82.859375 C78.22002863 85.44990928 79.88774762 87.06231393 82 89 C76.19688784 93.34044249 70.93557077 96.81657957 64 99 C69.7083891 97.37469477 74.46411877 95.34881563 79.37109375 91.98828125 C81 91 81 91 83 91 C84.0064275 92.66279327 85.00585407 94.32983484 86 96 C87.485 96.99 87.485 96.99 89 98 C89.33 97.67 89.66 97.34 90 97 C89.175 96.443125 88.35 95.88625 87.5 95.3125 C86.675 94.549375 85.85 93.78625 85 93 C85.020625 92.175 85.04125 91.35 85.0625 90.5 C85.041875 89.675 85.02125 88.85 85 88 C83.04690112 86.59886384 81.04291182 85.26660533 79 84 C76.91992578 80.9744375 77 79.85524891 77 76 C78.26457031 75.93941406 79.52914062 75.87882812 80.83203125 75.81640625 C82.49219871 75.73199096 84.15235437 75.64734345 85.8125 75.5625 C86.64587891 75.52318359 87.47925781 75.48386719 88.33789062 75.44335938 C89.14033203 75.40146484 89.94277344 75.35957031 90.76953125 75.31640625 C91.50792236 75.27974854 92.24631348 75.24309082 93.00708008 75.20532227 C95.207495 75.05157859 95.207495 75.05157859 98 74 C97.34515625 74.03665771 96.6903125 74.07331543 96.015625 74.11108398 C93.01090686 74.25776558 90.00694262 74.34798591 87 74.4375 C85.45505859 74.52547852 85.45505859 74.52547852 83.87890625 74.61523438 C78.19127121 74.74202879 74.74764166 74.41608598 70.34375 70.625 C66.24569035 66.52265815 64.93566829 63.45098759 64.875 57.6875 C64.91625 56.470625 64.9575 55.25375 65 54 C64.01 53.979375 63.02 53.95875 62 53.9375 C56.777896 53.19451772 53.42882741 49.79951146 50 46 C48 42.5625 48 42.5625 47 40 C47.83374146 40.19807251 47.83374146 40.19807251 48.68432617 40.40014648 C56.19505366 42.05497552 63.64675907 42.60875847 71.3125 43.0625 C72.64513552 43.14732585 73.97773625 43.23269999 75.31030273 43.31860352 C82.18504211 43.75393537 89.05807203 44.09608169 95.94213867 44.34057617 C116.87855356 45.11498749 116.87855356 45.11498749 124.125 50.1875 C129.89513365 58.84270048 130.2062584 68.38863735 129.95703125 78.5078125 C129.93466184 80.0872273 129.91320441 81.66665523 129.89257812 83.24609375 C129.85544544 85.69291663 129.81216124 88.13904944 129.75317383 90.58544922 C129.69843345 92.97633669 129.66954547 95.36645302 129.64453125 97.7578125 C129.62074905 98.48090607 129.59696686 99.20399963 129.57246399 99.94900513 C129.53939872 106.42347759 131.71950749 110.32829329 135.8671875 115.1875 C142.2503835 120.94976254 149.2417647 124.46851309 157 128 C156.67902344 127.11828125 156.67902344 127.11828125 156.3515625 126.21875 C156 124 156 124 156.8984375 122.21875 C160.9385841 117.51593385 165.02046117 114.75868789 171 113 C174.5625 112.75 174.5625 112.75 177 113 C177.22171875 112.44699219 177.4434375 111.89398438 177.671875 111.32421875 C185.75883327 97.17204177 205.88595227 87.37327327 220.66796875 82.88671875 C225.73714901 81.66855758 230.74861221 81.7073808 235.9375 81.75 C237.34418945 81.73839844 237.34418945 81.73839844 238.77929688 81.7265625 C244.8144484 81.74333846 250.15593277 82.48953339 256 84 C239.88707141 78.59686227 223.16594899 79.55923752 207.70703125 86.47265625 C197.46234677 91.65007744 188.1808526 98.3921921 180.4375 106.875 C176.3512662 111.16441669 172.44715122 112.54224884 166.80859375 114.09375 C162.8718552 115.36401891 160.26234296 117.50118412 157 120 C156.01 120 155.02 120 154 120 C154 117.03 154 114.06 154 111 C153.01 111.495 153.01 111.495 152 112 C152.28359887 110.5608866 152.57721399 109.12374482 152.875 107.6875 C153.11863281 106.48673828 153.11863281 106.48673828 153.3671875 105.26171875 C154 103 154 103 156 100 C155.34 99.67 154.68 99.34 154 99 C158.67473149 93.07767135 163.5281766 88.87428884 170 85 C168.68 84.67 167.36 84.34 166 84 C167.41468311 83.03874097 168.8318364 82.08111675 170.25 81.125 C171.03890625 80.59132813 171.8278125 80.05765625 172.640625 79.5078125 C178.12953368 76 178.12953368 76 182 76 C182.185625 75.4225 182.37125 74.845 182.5625 74.25 C185.24122326 70.05721577 189.73908019 68.4607207 194.25 66.8125 C199.1424172 65.75247627 204.01198717 65.34275676 209 65 C209 64.34 209 63.68 209 63 C214.258148 60.370926 221.65307293 61.66942619 227.125 63.1875 C232.09514332 64.84421444 236.54106447 67.27509495 241 70 C240.67 69.34 240.34 68.68 240 68 C239.960008 66.00039988 239.95653201 63.99952758 240 62 C240.66 61.67 241.32 61.34 242 61 C242.7425 62.3303125 242.7425 62.3303125 243.5 63.6875 C246.19479809 67.72969714 249.84312661 69.65471158 254 72 C262.19376826 76.79065239 262.19376826 76.79065239 265 81 C265.66 81 266.32 81 267 81 C268.36277086 79.21034453 268.36277086 79.21034453 269.625 77 C270.07101562 76.2575 270.51703125 75.515 270.9765625 74.75 C271.31429688 74.1725 271.65203125 73.595 272 73 C274.51083114 74.25541557 274.87125446 75.50063488 276 78 C276.66 77.67 277.32 77.34 278 77 C278.56905158 89.03438713 278.56905158 89.03438713 275 93 C273.515 93.495 273.515 93.495 272 94 C272.74056641 94.92232422 272.74056641 94.92232422 273.49609375 95.86328125 C274.13675781 96.67152344 274.77742188 97.47976562 275.4375 98.3125 C276.07558594 99.11300781 276.71367187 99.91351563 277.37109375 100.73828125 C280.27770191 104.77407532 280.09129217 108.16151505 280 113 C280.66 113 281.32 113 282 113 C286.89902064 119.39002692 288.37704987 128.15082838 289 136 C289.06445312 136.77730469 289.12890625 137.55460938 289.1953125 138.35546875 C289.37575139 142.04243671 289.42763124 144.28728127 287.5 147.5 C284.06891969 149.55864819 281.01554737 150.48504632 277 150 C274 147.75 274 147.75 272 145 C272 144.01 272 143.02 272 142 C271.40703125 141.76023438 270.8140625 141.52046875 270.203125 141.2734375 C267.55812054 139.74458741 266.46838775 138.13584811 264.75 135.625 C261.79187957 131.64903168 259.29115686 129.76350608 254.796875 127.8125 C252.17285451 126.62598639 250.67214235 125.34099929 249 123 C248.25 119.25 248.25 119.25 248 116 C239.20703679 117.10937415 239.20703679 117.10937415 232 122 C231.34 122 230.68 122 230 122 C230 122.66 230 123.32 230 124 C229.236875 124.7425 228.47375 125.485 227.6875 126.25 C224.89599895 129.10641967 223.26310749 131.21067752 222 135 C222.96432076 136.68756133 223.9731657 138.3497306 225 140 C225.57445572 143.65374539 225.81248718 147.30793718 226 151 C230.41636258 152.62546678 234.52841289 154.07764814 239.25 154.375 C243 155 243 155 246 156.9375 C248.84143422 161.28844615 248.56965585 164.91883286 248 170 C247.02388789 173.45468447 245.65207243 176.66431306 244.1875 179.9375 C241.50816628 186.20108873 239.12025234 192.17325703 237.86328125 198.90625 C235.88972689 203.69278908 231.12296877 205.58322971 226.58398438 207.484375 C225.95814453 207.73703125 225.33230469 207.9896875 224.6875 208.25 C224.04232422 208.518125 223.39714844 208.78625 222.73242188 209.0625 C221.15794868 209.71561481 219.57938084 210.35884404 218 211 C217.67 209.68 217.34 208.36 217 207 C215.35 207.33 213.7 207.66 212 208 C211.97314588 205.68756208 211.95367159 203.3750373 211.9375 201.0625 C211.92589844 199.77472656 211.91429687 198.48695313 211.90234375 197.16015625 C212 194 212 194 213 193 C215.33297433 192.95907063 217.66705225 192.95758277 220 193 C220 193.99 220 194.98 220 196 C220.99 196 221.98 196 223 196 C222.7525 195.46375 222.505 194.9275 222.25 194.375 C221.77535479 189.86587049 225.55893473 186.55133159 228.25 183.1875 C230.54901543 179.00000762 230.37361439 175.67017983 230 171 C221.72379722 169.96840532 215.16412458 174.45785875 207.98046875 178.08984375 C202.31733959 180.83928224 198.18014288 182.46174833 191.86816406 182.03222656 C189.09147181 181.98432753 187.52786845 183.02796914 185.3125 184.625 C165.9568422 197.17362218 144.79927256 198.49701268 122.37597656 198.58520508 C121.65404617 198.59283875 120.93211578 198.60047241 120.18830872 198.6083374 C118.20626761 198.62776508 116.22407935 198.62997166 114.24194336 198.63110352 C110.79249318 199.02361193 109.43305809 199.5830476 107 202 C105.88278215 204.17206386 105.88278215 204.17206386 105.125 206.625 C103.11197678 212.01394933 100.4447732 216.40973595 97 221 C96.47535156 221.70253906 95.95070312 222.40507812 95.41015625 223.12890625 C89.9944186 229.84442093 83.32424254 233.72271416 75.375 236.875 C71.01613591 238.7267552 68.36433714 241.35416124 65.16796875 244.79296875 C62.74217231 247.26247323 60.15321323 249.3548459 57.4375 251.5 C47.50560529 259.53355472 42.17326675 266.91976355 39.625 279.5 C38.26575585 285.78467727 35.96437685 290.00304127 32 295 C31.10667969 296.14082031 31.10667969 296.14082031 30.1953125 297.3046875 C29.00501649 298.82193177 27.81114641 300.33638069 26.61328125 301.84765625 C24.42832535 304.76269426 22.70929416 307.78652698 21 311 C20.01 310.67 19.02 310.34 18 310 C17.3125 307.9375 17.3125 307.9375 17 306 C16.1646875 306.433125 16.1646875 306.433125 15.3125 306.875 C12.91505355 308.0413253 10.48403061 309.0339881 8 310 C6.73417781 306.13276369 6.8881235 302.26848738 6.9375 298.25 C6.94201172 297.55261719 6.94652344 296.85523438 6.95117188 296.13671875 C6.9628998 294.42444197 6.98083347 292.71220967 7 291 C15.57142857 290.85714286 15.57142857 290.85714286 19 292 C18.67 291.29875 18.34 290.5975 18 289.875 C16.86711096 286.617944 16.56301816 284.42302438 17 281 C18.30887458 279.64264858 19.64852862 278.31494512 21 277 C25.24342492 269.82783088 28.29348877 262.26522287 29.70703125 254.0546875 C29.82933105 253.34715332 29.95163086 252.63961914 30.07763672 251.91064453 C30.31256679 250.50010782 30.53235608 249.08694201 30.73486328 247.67138672 C31.47848612 243.0784221 32.66660368 240.26648508 36 237 C37.89453125 236.13671875 37.89453125 236.13671875 39.8125 235.6875 C45.02144285 233.91860946 48.3707146 230.8283241 51 226 C52.33259137 219.53017232 50.90844567 213.51726811 48.75390625 207.38671875 C46.84571117 201.34574884 46.75674423 195.27814344 46.6875 189 C46.64399414 187.68515625 46.64399414 187.68515625 46.59960938 186.34375 C46.54297641 180.55847518 47.27210165 177.47053688 51 173 C44.42025615 174.44433402 40.31415 178.41055991 36.73828125 183.95703125 C32.0279597 192.83484919 31.77642412 201.14030364 32 211 C32.25159842 222.09549043 32.10984284 233.00008129 24.41796875 241.8125 C20.39165414 245.60995041 16.22941915 247.92059046 11.25 250.3125 C6.6436002 252.6743462 4.20647054 254.26978817 2.25 259.125 C1.27492398 262.37179569 0.63954078 265.67201928 0 269 C-2.76223278 266.23776722 -2.57856291 263.79293383 -3 260 C-3.56267578 260.99580078 -3.56267578 260.99580078 -4.13671875 262.01171875 C-9.91811942 271.98718338 -9.91811942 271.98718338 -14 275 C-15.9959541 275.25345449 -17.99536995 275.50339124 -20.00390625 275.62109375 C-23.50011368 276.28475739 -25.44225271 278.62494894 -28 281 C-28.66 281 -29.32 281 -30 281 C-30 280.34 -30 279.68 -30 279 C-31.32 279 -32.64 279 -34 279 C-32.69092496 276.25253515 -31.2096062 273.80328208 -29.484375 271.30078125 C-26.78261209 267.01771567 -25.98830023 263.13609282 -25.25 258.1875 C-22.94084843 245.26266554 -17.30097583 233.83421038 -10 223 C-8.97849011 220.94410194 -8.97849011 220.94410194 -8.3125 219 C-8.08175781 218.38125 -7.85101563 217.7625 -7.61328125 217.125 C-5.60316345 210.16000584 -5.68990259 202.97808721 -5.48242188 195.78710938 C-5.10085726 185.75843935 -2.70289005 176.81867123 4.125 169.1875 C14.18810945 160.19915802 28.98988629 162.84202724 41.50415039 163.2878418 C44.23589801 163.37876482 46.96643693 163.43181123 49.69921875 163.48046875 C50.52854416 163.52084763 51.35786957 163.5612265 52.21232605 163.60282898 C56.85159752 163.66250178 59.37143207 163.12776324 62.94238281 160.05688477 C63.96484091 159.04118674 64.98452572 158.02268032 66 157 C68.22265625 155.609375 68.22265625 155.609375 70.0625 154.75 C70.67222656 154.45609375 71.28195313 154.1621875 71.91015625 153.859375 C77.02658307 151.75542379 81.88860141 150.59961868 87.375 149.875 C88.62023437 149.70742187 89.86546875 149.53984375 91.1484375 149.3671875 C92.08945313 149.24601563 93.03046875 149.12484375 94 149 C93.67 148.01 93.34 147.02 93 146 C90.95956583 145.16050999 90.95956583 145.16050999 88.5625 144.625 C84.19023255 143.32719998 84.19023255 143.32719998 82.4375 140.3125 C82.2209375 139.1678125 82.2209375 139.1678125 82 138 C80.948125 137.938125 79.89625 137.87625 78.8125 137.8125 C74.28571509 136.84777535 72.80186744 135.6259461 70 132 C69.1875 129.1875 69.1875 129.1875 69 127 C68.13375 126.938125 67.2675 126.87625 66.375 126.8125 C62.08575977 125.77990513 60.07088974 124.14068269 57 121 C55.625 117.6875 55.625 117.6875 55 115 C54.29875 114.9175 53.5975 114.835 52.875 114.75 C47.86421783 113.44283943 44.78889041 111.04474675 41.6875 106.9375 C40 104 40 104 39 101 C37.30273642 99.94245088 37.30273642 99.94245088 35.25 99.125 C29.12328483 96.23669142 25.36041079 91.84960397 22 86 C22 84.68 22 83.36 22 82 C20.7625 81.7215625 20.7625 81.7215625 19.5 81.4375 C12.70163987 78.64531638 6.17735035 72.72774992 3 66 C2.05898569 62.35911216 1.4520546 58.73113726 1 55 C0.26394531 54.87496094 -0.47210938 54.74992187 -1.23046875 54.62109375 C-10.35977231 52.57376051 -16.04500751 46.64886395 -21 39 C-22.89269621 35.41156328 -24.50600052 31.76974287 -26 28 C-26.350625 27.15953125 -26.70125 26.3190625 -27.0625 25.453125 C-29.22609201 19.7917259 -30.31119993 14.06839854 -30 8 C-29.113125 8.825 -28.22625 9.65 -27.3125 10.5 C-19.19183358 17.46293393 -8.77277653 24.36776113 2 26 C1.50886719 24.57494141 1.50886719 24.57494141 1.0078125 23.12109375 C-0.33003345 18.43863293 -0.22058789 13.89704127 -0.125 9.0625 C-0.11597656 8.18787109 -0.10695312 7.31324219 -0.09765625 6.41210938 C-0.0742957 4.27461936 -0.03843247 2.13727214 0 0 Z " fill="#060606" transform="translate(49,13)"/>
<path d="M0 0 C3.2432402 1.52573918 5.04333863 2.95551964 7.3125 5.75 C13.95855114 13.49445708 21.27085675 18.0789432 30.16015625 22.94921875 C30.80855469 23.30483887 31.45695312 23.66045898 32.125 24.02685547 C33.83378242 24.91373135 35.60513153 25.67730984 37.37890625 26.42578125 C40 28 40 28 41.1796875 30.53125 C41.40914063 31.5109375 41.63859375 32.490625 41.875 33.5 C44.18863827 41.44349139 48.50144602 48.96098843 55.5 53.6875 C56.325 54.120625 57.15 54.55375 58 55 C52.90634937 60.09365063 43.22908147 59.38582472 36.4375 59.625 C35.06754883 59.68300781 35.06754883 59.68300781 33.66992188 59.7421875 C31.44680076 59.83530252 29.22366387 59.92112166 27 60 C30.9998593 60.08783475 34.99946704 60.14067102 39 60.1875 C40.12535156 60.21263672 41.25070313 60.23777344 42.41015625 60.26367188 C49.08788276 60.32224842 53.8967986 59.69134229 60 57 C60.99 57 61.98 57 63 57 C63.09796875 57.58007812 63.1959375 58.16015625 63.296875 58.7578125 C64.29903119 63.99321469 65.58620531 67.75861871 69 72 C70.485 72.99 70.485 72.99 72 74 C72 74.66 72 75.32 72 76 C63.74670244 78.88315195 55.6678988 81.63353125 47 83 C54.56421928 82.80828016 60.87582331 80.80691172 67.8984375 78.05859375 C71 77 71 77 75 77 C75.65104167 78.953125 76.30208333 80.90625 76.953125 82.859375 C78.22002863 85.44990928 79.88774762 87.06231393 82 89 C76.19688784 93.34044249 70.93557077 96.81657957 64 99 C69.7083891 97.37469477 74.46411877 95.34881563 79.37109375 91.98828125 C81 91 81 91 83 91 C84.0064275 92.66279327 85.00585407 94.32983484 86 96 C87.485 96.99 87.485 96.99 89 98 C85.26263933 106.21141263 78.21429657 110.80408397 70 114 C68.34200511 114.37408798 66.67638577 114.71960807 65 115 C75.14429379 113.50330092 82.63907014 109.01670336 89 101 C89.66 101 90.32 101 91 101 C91.2475 101.804375 91.495 102.60875 91.75 103.4375 C92.72238859 106.171081 92.72238859 106.171081 95.125 106.8125 C95.74375 106.874375 96.3625 106.93625 97 107 C95.09663714 112.39286143 92.27697133 117.15072581 88 121 C91.87051275 117.92118304 95.02911382 114.99926986 98 111 C98.226875 111.804375 98.45375 112.60875 98.6875 113.4375 C99.120625 114.283125 99.55375 115.12875 100 116 C102.54775306 116.89386164 102.54775306 116.89386164 105 117 C105 117.99 105 118.98 105 120 C104.34 120 103.68 120 103 120 C102.835 120.845625 102.67 121.69125 102.5 122.5625 C100.45066513 127.25889242 97.27197254 130.20589904 93 133 C90.23828125 133.69921875 90.23828125 133.69921875 88 134 C88 134.66 88 135.32 88 136 C94.30689008 133.23382014 98.37173515 130.0500814 103 125 C103.99541292 123.99543386 104.99397607 122.99393956 106 122 C108.97 123.98 108.97 123.98 112 126 C111.53234153 130.7190991 109.65065406 132.91832317 106.4375 136.3125 C105.61121094 137.19550781 104.78492188 138.07851562 103.93359375 138.98828125 C103.29550781 139.65214844 102.65742188 140.31601563 102 141 C105.64286184 139.03273049 107.92908538 137.19362306 110.3125 133.8125 C110.82425781 133.09707031 111.33601562 132.38164062 111.86328125 131.64453125 C112.23839844 131.10183594 112.61351562 130.55914062 113 130 C115.66666667 131.33333333 118.33333333 132.66666667 121 134 C120.66500306 139.35995109 117.44397452 143.11910334 114 147 C113.01 147.66 112.02 148.32 111 149 C114.1214778 147.64195446 115.96958229 146.18624145 118.125 143.5625 C118.62257812 142.96566406 119.12015625 142.36882812 119.6328125 141.75390625 C120.82665495 140.22237694 121.9228468 138.6157298 123 137 C126.96 137.99 126.96 137.99 131 139 C131.08642612 143.14845362 130.83733028 145.07435755 128 148.2109375 C120.19320533 155.14196995 120.19320533 155.14196995 114.0625 155.25 C112.74958984 155.28867187 112.74958984 155.28867187 111.41015625 155.328125 C108.48716563 154.93018138 107.99572934 154.05825872 106 152 C103.46386273 151.37013696 100.96504504 151.05797458 98.375 150.72265625 C95.37685002 149.81039022 94.80626562 148.48181855 93 146 C90.81330476 145.07014045 90.81330476 145.07014045 88.4375 144.5625 C84.1861811 143.32023149 84.1861811 143.32023149 82.4375 140.3125 C82.2209375 139.1678125 82.2209375 139.1678125 82 138 C80.948125 137.938125 79.89625 137.87625 78.8125 137.8125 C74.28571509 136.84777535 72.80186744 135.6259461 70 132 C69.1875 129.1875 69.1875 129.1875 69 127 C68.13375 126.938125 67.2675 126.87625 66.375 126.8125 C62.08575977 125.77990513 60.07088974 124.14068269 57 121 C55.625 117.6875 55.625 117.6875 55 115 C54.29875 114.9175 53.5975 114.835 52.875 114.75 C47.86421783 113.44283943 44.78889041 111.04474675 41.6875 106.9375 C40 104 40 104 39 101 C37.30273642 99.94245088 37.30273642 99.94245088 35.25 99.125 C29.12328483 96.23669142 25.36041079 91.84960397 22 86 C22 84.68 22 83.36 22 82 C20.7625 81.7215625 20.7625 81.7215625 19.5 81.4375 C12.70163987 78.64531638 6.17735035 72.72774992 3 66 C2.05898569 62.35911216 1.4520546 58.73113726 1 55 C0.26394531 54.87496094 -0.47210938 54.74992187 -1.23046875 54.62109375 C-10.35977231 52.57376051 -16.04500751 46.64886395 -21 39 C-22.89269621 35.41156328 -24.50600052 31.76974287 -26 28 C-26.350625 27.15953125 -26.70125 26.3190625 -27.0625 25.453125 C-29.22609201 19.7917259 -30.31119993 14.06839854 -30 8 C-29.113125 8.825 -28.22625 9.65 -27.3125 10.5 C-19.19183358 17.46293393 -8.77277653 24.36776113 2 26 C1.67257813 25.04996094 1.34515625 24.09992187 1.0078125 23.12109375 C-0.33003345 18.43863293 -0.22058789 13.89704127 -0.125 9.0625 C-0.11597656 8.18787109 -0.10695313 7.31324219 -0.09765625 6.41210938 C-0.0742957 4.27461936 -0.03843247 2.13727214 0 0 Z " fill="#060606" transform="translate(49,13)"/>
<path d="M0 0 C0.55582764 0.13204834 1.11165527 0.26409668 1.68432617 0.40014648 C9.19505366 2.05497552 16.64675907 2.60875847 24.3125 3.0625 C25.64513552 3.14732585 26.97773625 3.23269999 28.31030273 3.31860352 C35.18504211 3.75393537 42.05807203 4.09608169 48.94213867 4.34057617 C69.87855356 5.11498749 69.87855356 5.11498749 77.125 10.1875 C82.89513365 18.84270048 83.2062584 28.38863735 82.95703125 38.5078125 C82.93466184 40.0872273 82.91320441 41.66665523 82.89257812 43.24609375 C82.85544544 45.69291663 82.81216124 48.13904944 82.75317383 50.58544922 C82.69843345 52.97633669 82.66954547 55.36645302 82.64453125 57.7578125 C82.62074905 58.48090607 82.59696686 59.20399963 82.57246399 59.94900513 C82.53949009 66.40558703 84.71889693 70.26763523 88.796875 75.15234375 C94.18824748 80.08005819 99.92440607 83.25009191 106.50292969 86.29858398 C110.00120467 87.92556083 112.22867611 89.22867611 115 92 C112.03 92 109.06 92 106 92 C106 91.34 106 90.68 106 90 C105.34515625 89.98582031 104.6903125 89.97164063 104.015625 89.95703125 C94.34523672 89.45165785 84.47354292 86.37985371 77 80 C72.04844602 73.55049692 69.94552968 67.0554427 69.10546875 58.984375 C68.95321014 57.63663538 68.80019087 56.28898151 68.64648438 54.94140625 C68.41473011 52.85146629 68.18866115 50.76143966 67.97631836 48.66943359 C66.53952832 34.28123591 66.53952832 34.28123591 58.45703125 22.78125 C48.1488499 17.78703511 39.40456344 16.64728154 28 17 C28.90621094 17.12117188 29.81242187 17.24234375 30.74609375 17.3671875 C52.05740198 20.29890186 52.05740198 20.29890186 59 26 C62.53622671 30.79101683 63.53004725 35.06347079 63 41 C59.79848847 44.71375338 54.53263673 45.7028561 49.80883789 46.25708008 C47.47344586 46.4092529 45.15248633 46.46913456 42.8125 46.5 C42.01908203 46.54125 41.22566406 46.5825 40.40820312 46.625 C38.1203337 46.65573544 36.21083986 46.59394006 34 46 C30.7320128 42.4367429 30 40.86195881 30 36 C31.26457031 35.93941406 32.52914062 35.87882812 33.83203125 35.81640625 C35.49219871 35.73199096 37.15235437 35.64734345 38.8125 35.5625 C39.64587891 35.52318359 40.47925781 35.48386719 41.33789062 35.44335938 C42.14033203 35.40146484 42.94277344 35.35957031 43.76953125 35.31640625 C44.50792236 35.27974854 45.24631348 35.24309082 46.00708008 35.20532227 C48.207495 35.05157859 48.207495 35.05157859 51 34 C50.01773438 34.05498657 50.01773438 34.05498657 49.015625 34.11108398 C46.01090686 34.25776558 43.00694262 34.34798591 40 34.4375 C38.97003906 34.49615234 37.94007813 34.55480469 36.87890625 34.61523438 C31.19127121 34.74202879 27.74764166 34.41608598 23.34375 30.625 C19.24569035 26.52265815 17.93566829 23.45098759 17.875 17.6875 C17.91625 16.470625 17.9575 15.25375 18 14 C17.01 13.979375 16.02 13.95875 15 13.9375 C9.777896 13.19451772 6.42882741 9.79951146 3 6 C1 2.5625 1 2.5625 0 0 Z " fill="#070707" transform="translate(96,53)"/>
<path d="M0 0 C13.43243509 -0.46556579 25.35835432 -0.11457262 36.87890625 7.6953125 C43.6949229 15.10129745 44.03104024 24.87128632 45 34.4375 C46.44396787 49.41726114 46.44396787 49.41726114 53 62.75 C61.37792627 69.0334447 70.99603851 72.2569783 81 75 C81 75.33 81 75.66 81 76 C79.02 76 77.04 76 75 76 C73.94112651 78.64232652 72.88807014 81.28629679 71.8515625 83.9375 C71.44679688 84.948125 71.04203125 85.95875 70.625 87 C70.22539062 88.010625 69.82578125 89.02125 69.4140625 90.0625 C67.94568363 93.11283401 66.20685001 95.44568849 64 98 C67.3634269 97.97350778 67.3634269 97.97350778 71 97 C73.59617978 93.97112359 74.94736825 91.13043521 76.4375 87.4375 C78.45830346 82.99173238 81.02020049 80.31986634 85.0625 77.625 C87.42838102 76.86181257 88.6526662 77.32654456 91 78 C90.32453125 78.32871094 89.6490625 78.65742188 88.953125 78.99609375 C81.99482179 82.70651844 79.60871484 85.7216856 77 93 C74.26499568 97.92300777 72.21687932 99.90852177 67 102 C63.89972386 102.50696788 60.82434667 102.64585173 57.6875 102.75 C56.4819043 102.81380859 56.4819043 102.81380859 55.25195312 102.87890625 C46.94722539 103.23969088 40.5089511 103.50757401 34 98 C28.39746776 96.22586479 22.84134276 95.51382182 17 95 C21 92.33333333 21 92.33333333 24 92 C34.47619048 94.47619048 34.47619048 94.47619048 38 98 C42.30546296 98.8322828 46.37380381 98.81446007 50.33203125 96.83203125 C55.40281327 93.17241306 58.83427631 89.29490793 60 83 C57.36 82.67 54.72 82.34 52 82 C51.41992188 82.79664063 51.41992188 82.79664063 50.828125 83.609375 C48.08649307 87.32822227 45.40892784 90.85329738 42 94 C41.01 93.67 40.02 93.34 39 93 C39.886875 92.38125 40.77375 91.7625 41.6875 91.125 C45.93566738 87.64372269 47.83347118 82.93700152 50 78 C49.13375 77.814375 49.13375 77.814375 48.25 77.625 C45.97664233 76.99351176 44.0746471 76.11141809 42 75 C41.55269531 75.62648438 41.10539062 76.25296875 40.64453125 76.8984375 C40.03996094 77.71570313 39.43539062 78.53296875 38.8125 79.375 C38.22082031 80.18710938 37.62914062 80.99921875 37.01953125 81.8359375 C34.80446961 84.20952387 33.06646859 85.03610141 30 86 C30.38671875 85.56429687 30.7734375 85.12859375 31.171875 84.6796875 C37.09795668 77.96694029 37.09795668 77.96694029 41 70 C40.21625 69.690625 39.4325 69.38125 38.625 69.0625 C36 68 36 68 34 67 C33.57589844 67.51949219 33.15179688 68.03898437 32.71484375 68.57421875 C28.83517551 73.18718693 25.14604403 76.83320367 20 80 C19.01 80 18.02 80 17 80 C17 79.34 17 78.68 17 78 C17.51949219 77.78085938 18.03898437 77.56171875 18.57421875 77.3359375 C25.07695655 74.37905488 29.14436215 70.74968946 32 64 C32.66 64 33.32 64 34 64 C34 63.01 34 62.02 34 61 C33.236875 60.896875 32.47375 60.79375 31.6875 60.6875 C28.77363954 59.94209384 27.97049603 59.15541061 26 57 C25.54109375 57.56589844 25.0821875 58.13179687 24.609375 58.71484375 C23.99578125 59.44832031 23.3821875 60.18179688 22.75 60.9375 C21.84507812 62.03384766 21.84507812 62.03384766 20.921875 63.15234375 C18.89258866 65.10326334 17.745593 65.61731779 15 66 C15.70125 65.38125 16.4025 64.7625 17.125 64.125 C20.93935748 60.35436009 23.38091766 55.63514572 26 51 C25.36578125 50.88785156 24.7315625 50.77570313 24.078125 50.66015625 C23.39234375 50.44230469 22.7065625 50.22445312 22 50 C20.75 47.4375 20.75 47.4375 20 45 C19.34 45 18.68 45 18 45 C17.7525 45.5878125 17.505 46.175625 17.25 46.78125 C13.6824806 53.11359693 6.11517018 56.92172415 -0.4921875 59.35546875 C-4.43428448 60.36862452 -7.94939024 60.26132966 -12 60 C-12 59.67 -12 59.34 -12 59 C-11.09378906 58.85304687 -10.18757813 58.70609375 -9.25390625 58.5546875 C2.52951334 56.38504199 10.16483567 52.04774929 18 43 C18.33 42.34 18.66 41.68 19 41 C18.175 40.443125 17.35 39.88625 16.5 39.3125 C14 37 14 37 13.8125 34.375 C13.874375 33.59125 13.93625 32.8075 14 32 C13.34 31.34 12.68 30.68 12 30 C13.57587891 29.94392578 13.57587891 29.94392578 15.18359375 29.88671875 C27.41861259 29.92348377 27.41861259 29.92348377 38 25 C38.43688699 19.53891268 37.8041249 15.73196076 35 11 C26.22771715 2.67757781 11.33385777 2.44434469 0 1 C0 0.67 0 0.34 0 0 Z " fill="#898889" transform="translate(120,69)"/>
<path d="M0 0 C0.56847656 0.40992188 1.13695313 0.81984375 1.72265625 1.2421875 C2.49480469 1.78101563 3.26695313 2.31984375 4.0625 2.875 C4.81660156 3.40867188 5.57070312 3.94234375 6.34765625 4.4921875 C12.05545412 7.73697392 18.02073125 8.34288795 24.43359375 8.7109375 C26.06968698 8.8225432 27.70575388 8.93453531 29.34179688 9.046875 C31.87494911 9.21226564 34.40821528 9.37323019 36.94213867 9.52636719 C66.05493944 11.32214745 66.05493944 11.32214745 76 19 C82.28461549 26.42414479 82.39668868 35.52888444 82.1171875 44.81640625 C82.08413464 47.06704999 82.0515981 49.31770137 82.01953125 51.56835938 C81.95120703 55.072802 81.87464521 58.57678197 81.78759766 62.08081055 C81.70877955 65.49267921 81.66138651 68.90393833 81.6171875 72.31640625 C81.58196991 73.35414688 81.54675232 74.39188751 81.51046753 75.46107483 C81.40872876 85.45321717 85.48900552 91.74489187 92 99 C82.26228268 96.75283446 75.33727417 89.00591125 70 81 C69.7931366 78.92222595 69.7931366 78.92222595 69.85229492 76.50366211 C69.86858444 75.59519028 69.88487396 74.68671844 69.9016571 73.75071716 C69.94066887 72.27889732 69.94066887 72.27889732 69.98046875 70.77734375 C70.01065649 68.69076791 70.03992351 66.60417858 70.06835938 64.51757812 C70.12390992 61.23471243 70.18713284 57.95252643 70.26733398 54.67016602 C70.3404592 51.49749057 70.38127215 48.32562255 70.41796875 45.15234375 C70.45004929 44.18530014 70.48212982 43.21825653 70.5151825 42.22190857 C70.57099846 34.62077779 68.65511471 28.02757753 63.44749451 22.28929138 C55.48494326 15.19700285 40.69243894 16.69242574 30.75 16.5 C-8.56463053 15.41680106 -8.56463053 15.41680106 -16.35546875 9.0859375 C-18 7 -18 7 -18 4 C-10.90116066 5.14789743 -4.58341381 7.11450374 2 10 C1.67 9.278125 1.34 8.55625 1 7.8125 C-0.00603529 4.98302573 -0.16977402 2.97104534 0 0 Z " fill="#0E0E0E" transform="translate(110,39)"/>
<path d="M0 0 C3.55780196 0.60990891 6.6828589 1.5783681 10 3 C9.01 3.33 8.02 3.66 7 4 C8.80412643 7.26460973 9.83394693 8.88929795 13 11 C15.48657094 11.60219389 17.9235929 12.11468808 20.4375 12.5625 C21.41106445 12.75102539 21.41106445 12.75102539 22.40429688 12.94335938 C34.51944298 15.17049403 46.85585378 15.25163233 59.13476562 15.51757812 C82.74274137 16.1827683 82.74274137 16.1827683 89.21252441 22.05412292 C94.53465656 27.84788874 96.57987122 34.34598017 96.4125824 42.09365845 C96.34563927 43.52069595 96.34563927 43.52069595 96.27734375 44.9765625 C96.23362197 47.04947702 96.19000531 49.12239376 96.14648438 51.1953125 C96.04688239 54.41897381 95.9368912 57.64208246 95.82202148 60.86523438 C95.71914545 64.00641431 95.6532625 67.14687585 95.58984375 70.2890625 C95.51986427 71.7221727 95.51986427 71.7221727 95.44847107 73.18423462 C95.32075316 80.17449367 97.17479894 83.97971914 102 89 C104.30694578 91.26143039 104.30694578 91.26143039 106.625 92.9375 C107.72714844 93.78634766 107.72714844 93.78634766 108.8515625 94.65234375 C110.94626987 95.96629656 112.5826698 96.56794325 115 97 C114.67 96.34 114.34 95.68 114 95 C114.66 95 115.32 95 116 95 C116.04254356 93.00045254 116.04080783 90.99958364 116 89 C115.67 88.67 115.34 88.34 115 88 C114.8125 85.0625 114.8125 85.0625 115 82 C115.66 81.34 116.32 80.68 117 80 C117 81.65 117 83.3 117 85 C117.66 84.67 118.32 84.34 119 84 C118.67 87.3 118.34 90.6 118 94 C118.99 93.4225 119.98 92.845 121 92.25 C126.1435621 89.32117088 131.17106311 86.51617299 136.875 84.875 C141.77884797 83.11683745 144.65082594 79.45941306 148.17578125 75.76171875 C156.72141701 67.40519803 166.87786905 61.30396638 178 57 C178.85464844 56.66097656 179.70929688 56.32195312 180.58984375 55.97265625 C192.63848147 51.94406706 208.17947676 52.5262603 220 57 C220.99 57.66 221.98 58.32 223 59 C216.5148765 58.10988501 216.5148765 58.10988501 213.56225586 57.47973633 C194.34629213 53.88189271 177.04880342 58.56335483 161 69 C149.51844998 76.68661401 149.51844998 76.68661401 141 87 C139.0997888 87.50419714 137.17823792 87.92920393 135.25 88.3125 C130.09682226 89.51674201 127.32616898 90.70816905 124 95 C123.401875 95.515625 122.80375 96.03125 122.1875 96.5625 C120.57541237 98.20321546 120.57541237 98.20321546 121 102 C111.26220728 100.59362774 101.94473349 93.66369258 96 86 C93.13378404 81.25456554 92.61312574 77.3864025 92.77734375 71.9609375 C92.78633194 71.19882965 92.79532013 70.4367218 92.80458069 69.65151978 C92.83442957 67.22553492 92.88409778 64.80057223 92.9375 62.375 C93.14553784 52.01910613 93.24548966 42.18456399 91 32 C90.78549194 30.90993652 90.78549194 30.90993652 90.56665039 29.79785156 C89.8040677 26.27858997 89.8040677 26.27858997 87.27392578 23.91772461 C76.03504017 19.38186772 64.04910928 19.35283912 52.125 18.9375 C38.59515773 18.43653494 25.29329665 17.7806931 12 15 C15.4462859 20.69962668 19.21924955 25.38972765 25.875 27.3125 C26.90625 27.539375 27.9375 27.76625 29 28 C29.07476562 28.71285156 29.14953125 29.42570312 29.2265625 30.16015625 C30.16658818 37.00759821 31.69858962 41.41888994 37 46 C39.4931163 47.24655815 41.19345311 47.12935252 43.98046875 47.1328125 C45.4799707 47.13474609 45.4799707 47.13474609 47.00976562 47.13671875 C48.05841797 47.13285156 49.10707031 47.12898438 50.1875 47.125 C51.21681641 47.12886719 52.24613281 47.13273437 53.30664062 47.13671875 C58.64537015 47.12987861 63.74144987 46.93716735 69 46 C65.17342192 49.82657808 59.48776366 50.11195699 54.28125 50.1953125 C52.68738122 50.182248 51.09356518 50.15873998 49.5 50.125 C48.26636719 50.11146484 48.26636719 50.11146484 47.0078125 50.09765625 C45.00507917 50.07436865 43.00249846 50.03850959 41 50 C41.42492126 51.29585916 41.86545882 52.5866044 42.3125 53.875 C42.55613281 54.59429687 42.79976562 55.31359375 43.05078125 56.0546875 C43.96335547 58.33994905 43.96335547 58.33994905 47 60 C49.50896686 60.45601261 49.50896686 60.45601261 52.1875 60.625 C53.08855469 60.69976562 53.98960937 60.77453125 54.91796875 60.8515625 C55.60503906 60.90054688 56.29210937 60.94953125 57 61 C57 61.33 57 61.66 57 62 C54.36 62 51.72 62 49 62 C49.62810173 64.97017694 49.62810173 64.97017694 51 68 C53.50995496 69.43923199 53.50995496 69.43923199 56 70 C55.01 70.495 55.01 70.495 54 71 C53.67 71.66 53.34 72.32 53 73 C49.54832597 70.52187506 47.76836694 69.20393865 47 65 C46.0821875 65.56589844 45.164375 66.13179688 44.21875 66.71484375 C42.97960112 67.45645558 41.73999285 68.19730018 40.5 68.9375 C39.89929688 69.31068359 39.29859375 69.68386719 38.6796875 70.06835938 C34.0738397 72.78776951 30.33653533 73.62809544 25 74 C27.66363291 72.22424472 29.78109973 71.27087199 32.75 70.1875 C37.44513442 68.36314425 41.04275828 66.09697178 45 63 C43.7934375 61.700625 43.7934375 61.700625 42.5625 60.375 C39.87317166 57.47880025 39.4727028 54.87942294 39 51 C37.77023438 51.42152344 36.54046875 51.84304687 35.2734375 52.27734375 C33.64070691 52.83097079 32.00788981 53.38434275 30.375 53.9375 C29.16263672 54.35418945 29.16263672 54.35418945 27.92578125 54.77929688 C21.97492187 56.78710715 16.45212275 58.1583655 10.125 58.0625 C9.34382813 58.05347656 8.56265625 58.04445312 7.7578125 58.03515625 C7.17773438 58.02355469 6.59765625 58.01195312 6 58 C6 57.67 6 57.34 6 57 C7.27875 56.74605469 8.5575 56.49210937 9.875 56.23046875 C11.5834032 55.88315601 13.29173266 55.53548038 15 55.1875 C15.83917969 55.02185547 16.67835937 54.85621094 17.54296875 54.68554688 C21.64697841 53.84247512 25.52860444 52.88549539 29.4375 51.36328125 C33 50 33 50 36 50 C35.2575 49.319375 34.515 48.63875 33.75 47.9375 C29.69649615 43.83780237 27.12610385 39.98613559 26.75 34.0625 C26.8325 33.051875 26.915 32.04125 27 31 C26.35458252 31.28512451 25.70916504 31.57024902 25.04418945 31.86401367 C17.56983491 34.90577067 11.20154186 35.52909573 3.1875 35.3125 C2.09501953 35.30283203 1.00253906 35.29316406 -0.12304688 35.28320312 C-5.20235711 35.21209896 -9.99422577 34.91782536 -15 34 C-15 33.67 -15 33.34 -15 33 C-13.88927124 32.970271 -13.88927124 32.970271 -12.75610352 32.93994141 C-9.35791589 32.84390394 -5.9602779 32.73454684 -2.5625 32.625 C-1.39783203 32.5940625 -0.23316406 32.563125 0.96679688 32.53125 C7.57460923 32.30788733 13.60221961 31.68326628 20 30 C19.34 29.401875 18.68 28.80375 18 28.1875 C11.10624901 21.19554743 6.42220219 13.94474871 3.88671875 4.43359375 C3.15345725 1.67484224 3.15345725 1.67484224 0 0 Z " fill="#B9B9B9" transform="translate(85,39)"/>
<path d="M0 0 C0.99 0.33 1.98 0.66 3 1 C4.140625 3.4765625 4.140625 3.4765625 5.25 6.625 C7.87415337 13.08210042 10.26524148 17.82109418 16.81542969 20.83544922 C20.28540467 22.26984868 23.7990148 23.53649495 27.35546875 24.73828125 C30.07075177 25.67829885 32.49548003 26.62154327 35 28 C34.4225 28.763125 33.845 29.52625 33.25 30.3125 C31.26285813 33.25123094 30.14160507 36.21016766 29 39.5625 C27.57435945 43.71496096 26.09882644 46.79050119 23 50 C26.3634269 49.97350778 26.3634269 49.97350778 30 49 C32.59617978 45.97112359 33.94736825 43.13043521 35.4375 39.4375 C37.45830346 34.99173238 40.02020049 32.31986634 44.0625 29.625 C46.42838102 28.86181257 47.6526662 29.32654456 50 30 C49.32453125 30.32871094 48.6490625 30.65742188 47.953125 30.99609375 C40.99482179 34.70651844 38.60871484 37.7216856 36 45 C33.26499568 49.92300777 31.21687932 51.90852177 26 54 C22.89972386 54.50696788 19.82434667 54.64585173 16.6875 54.75 C15.88376953 54.79253906 15.08003906 54.83507812 14.25195312 54.87890625 C5.94722539 55.23969088 -0.4910489 55.50757401 -7 50 C-12.60253224 48.22586479 -18.15865724 47.51382182 -24 47 C-20 44.33333333 -20 44.33333333 -17 44 C-6.52380952 46.47619048 -6.52380952 46.47619048 -3 50 C1.30546296 50.8322828 5.37380381 50.81446007 9.33203125 48.83203125 C14.40281327 45.17241306 17.83427631 41.29490793 19 35 C16.36 34.67 13.72 34.34 11 34 C10.61328125 34.53109375 10.2265625 35.0621875 9.828125 35.609375 C7.08649307 39.32822227 4.40892784 42.85329738 1 46 C-0.485 45.505 -0.485 45.505 -2 45 C-0.6696875 44.071875 -0.6696875 44.071875 0.6875 43.125 C4.93566738 39.64372269 6.83347118 34.93700152 9 30 C8.38640625 29.87753906 7.7728125 29.75507813 7.140625 29.62890625 C4.28993159 28.79138501 2.96181072 27.17200472 1 25 C1.66 25 2.32 25 3 25 C3 24.01 3 23.02 3 22 C2.236875 21.7525 1.47375 21.505 0.6875 21.25 C-2.26988327 19.8744729 -3.44791483 18.84548949 -5 16 C-4.67 15.01 -4.34 14.02 -4 13 C-4.928125 12.773125 -5.85625 12.54625 -6.8125 12.3125 C-10.54423567 10.77590296 -11.40328904 9.63695275 -13 6 C-13 5.01 -13 4.02 -13 3 C-12.22914063 2.86722656 -11.45828125 2.73445313 -10.6640625 2.59765625 C-9.66117188 2.42105469 -8.65828125 2.24445313 -7.625 2.0625 C-6.62726563 1.88847656 -5.62953125 1.71445313 -4.6015625 1.53515625 C-2.03090344 1.12287938 -2.03090344 1.12287938 0 0 Z " fill="#242424" transform="translate(161,117)"/>
<path d="M0 0 C3.96 0 7.92 0 12 0 C12 0.33 12 0.66 12 1 C10.906875 1.226875 9.81375 1.45375 8.6875 1.6875 C4.99466341 2.64403985 4.99466341 2.64403985 3.3125 5.0625 C2.59055602 6.67827939 1.87942729 8.29962318 1.21875 9.94140625 C-4.64883614 24.07925388 -14.03944153 33.91929998 -28 40 C-28.84949219 40.30164063 -29.69898438 40.60328125 -30.57421875 40.9140625 C-33.26853561 42.12021401 -34.63901756 43.39716672 -36.625 45.5625 C-39.75502141 48.83452616 -43.01180639 51.68964306 -46.5625 54.5 C-56.49439471 62.53355472 -61.82673325 69.91976355 -64.375 82.5 C-65.73424415 88.78467727 -68.03562315 93.00304127 -72 98 C-72.59554687 98.76054687 -73.19109375 99.52109375 -73.8046875 100.3046875 C-74.99498351 101.82193177 -76.18885359 103.33638069 -77.38671875 104.84765625 C-79.57167465 107.76269426 -81.29070584 110.78652698 -83 114 C-83.99 113.67 -84.98 113.34 -86 113 C-86.5625 111.0625 -86.5625 111.0625 -87 109 C-87.66 108.34 -88.32 107.68 -89 107 C-88.34 107 -87.68 107 -87 107 C-86.93296875 106.43796875 -86.8659375 105.8759375 -86.796875 105.296875 C-85.68804446 102.10083403 -83.69106698 100.57551351 -81.25 98.25 C-74.93449604 91.78359461 -73.17015452 84.56125958 -71 76 C-66.32250628 58.98561658 -55.15316963 51.11099485 -40.6640625 41.859375 C-37.97290399 40.09673572 -37.97290399 40.09673572 -35.87890625 37.87890625 C-34.03253677 36.03253677 -32.68456769 35.19699631 -30.3125 34.1875 C-15.97066274 27.228269 -6.95288915 13.9057783 0 0 Z " fill="#111111" transform="translate(153,210)"/>
<path d="M0 0 C3.2432402 1.52573918 5.04333863 2.95551964 7.3125 5.75 C13.95855114 13.49445708 21.27085675 18.0789432 30.16015625 22.94921875 C31.1337207 23.48494507 31.1337207 23.48494507 32.12695312 24.03149414 C34.20859583 25.14479538 34.20859583 25.14479538 37.34765625 26.3515625 C40.9698685 28.60277542 41.32843272 30.62198864 42.375 34.6875 C42.85066406 36.45673828 42.85066406 36.45673828 43.3359375 38.26171875 C43.55507812 39.16535156 43.77421875 40.06898437 44 41 C27.75000537 40.61393101 13.2794045 34.20225283 -1 27 C-0.01 26.67 0.98 26.34 2 26 C1.67257813 25.04996094 1.34515625 24.09992187 1.0078125 23.12109375 C-0.33003345 18.43863293 -0.22058789 13.89704127 -0.125 9.0625 C-0.11597656 8.18787109 -0.10695312 7.31324219 -0.09765625 6.41210938 C-0.0742957 4.27461936 -0.03843247 2.13727214 0 0 Z " fill="#090909" transform="translate(49,13)"/>
<path d="M0 0 C2.52234319 0.08781267 5.0415165 0.19478007 7.5625 0.3125 C8.26697266 0.33505859 8.97144531 0.35761719 9.69726562 0.38085938 C16.77247317 0.73951045 22.93953338 2.80636321 28 8 C32.52154065 15.00820189 33.66312801 20.75273719 33.27734375 28.9765625 C33.23362197 31.04947702 33.19000531 33.12239376 33.14648438 35.1953125 C33.04688239 38.41897381 32.9368912 41.64208246 32.82202148 44.86523438 C32.71914545 48.00641431 32.6532625 51.14687585 32.58984375 54.2890625 C32.54319077 55.2444693 32.49653778 56.1998761 32.44847107 57.18423462 C32.32075316 64.17449367 34.17479894 67.97971914 39 73 C41.30694578 75.26143039 41.30694578 75.26143039 43.625 76.9375 C44.35976562 77.50339844 45.09453125 78.06929688 45.8515625 78.65234375 C47.94626987 79.96629656 49.5826698 80.56794325 52 81 C51.67 80.34 51.34 79.68 51 79 C51.66 79 52.32 79 53 79 C53.04254356 77.00045254 53.04080783 74.99958364 53 73 C52.67 72.67 52.34 72.34 52 72 C51.8125 69.0625 51.8125 69.0625 52 66 C52.66 65.34 53.32 64.68 54 64 C54 65.65 54 67.3 54 69 C54.66 68.67 55.32 68.34 56 68 C55.67 71.3 55.34 74.6 55 78 C56.485 77.13375 56.485 77.13375 58 76.25 C63.1435621 73.32117088 68.17106311 70.51617299 73.875 68.875 C78.77884797 67.11683745 81.65082594 63.45941306 85.17578125 59.76171875 C93.72141701 51.40519803 103.87786905 45.30396638 115 41 C115.85464844 40.66097656 116.70929688 40.32195312 117.58984375 39.97265625 C129.63848147 35.94406706 145.17947676 36.5262603 157 41 C157.99 41.66 158.98 42.32 160 43 C153.5148765 42.10988501 153.5148765 42.10988501 150.56225586 41.47973633 C131.34629213 37.88189271 114.04880342 42.56335483 98 53 C86.51844998 60.68661401 86.51844998 60.68661401 78 71 C76.0997888 71.50419714 74.17823792 71.92920393 72.25 72.3125 C67.09682226 73.51674201 64.32616898 74.70816905 61 79 C60.401875 79.515625 59.80375 80.03125 59.1875 80.5625 C57.57541237 82.20321546 57.57541237 82.20321546 58 86 C48.26220728 84.59362774 38.94473349 77.66369258 33 70 C30.13378404 65.25456554 29.61312574 61.3864025 29.77734375 55.9609375 C29.79082603 54.81777573 29.79082603 54.81777573 29.80458069 53.65151978 C29.83442957 51.22553492 29.88409778 48.80057223 29.9375 46.375 C30.14553784 36.01910613 30.24548966 26.18456399 28 16 C27.85699463 15.27329102 27.71398926 14.54658203 27.56665039 13.79785156 C26.80647793 10.30876079 26.80647793 10.30876079 24.33984375 7.9140625 C20.35167529 6.35608016 16.17713392 5.65447519 11.99609375 4.78125 C9 4 9 4 6 2 C4.0103005 1.60986284 2.00980131 1.26797351 0 1 C0 0.67 0 0.34 0 0 Z " fill="#919191" transform="translate(148,55)"/>
<path d="M0 0 C2.58926331 2.58926331 2.37398043 4.02705279 2.625 7.625 C2.69976562 8.62789062 2.77453125 9.63078125 2.8515625 10.6640625 C2.92503906 11.82035156 2.92503906 11.82035156 3 13 C7.41636258 14.62546678 11.52841289 16.07764814 16.25 16.375 C20 17 20 17 23 18.9375 C25.84143422 23.28844615 25.56965585 26.91883286 25 32 C24.0238716 35.45474212 22.65122715 38.66391127 21.1875 41.9375 C20.44731251 43.67907951 19.71159004 45.42256382 18.98046875 47.16796875 C18.63290527 47.99603027 18.2853418 48.8240918 17.92724609 49.67724609 C16.19952657 54.00518805 15.00074364 58.45495599 14 63 C12.90341064 59.71023192 13.20046862 58.28696233 14 55 C13.34 55 12.68 55 12 55 C11.9071875 56.3921875 11.9071875 56.3921875 11.8125 57.8125 C11 61 11 61 8.9375 62.625 C7.4834375 63.305625 7.4834375 63.305625 6 64 C5.32710938 64.36351562 4.65421875 64.72703125 3.9609375 65.1015625 C-0.14048326 67.29395832 -0.14048326 67.29395832 -2 68 C-2.66 67.67 -3.32 67.34 -4 67 C-0.92476151 64.87662104 1.82095174 63.07919442 5.25 61.5625 C8.07625901 60.25224791 8.07625901 60.25224791 9.25 57.9375 C10.00806485 55.15118548 10.00806485 55.15118548 10.34375 52.875 C11.21713684 47.63467896 12.59311377 43.57622536 15.125 38.875 C17.80379669 33.84250331 18.65089644 30.64110248 18 25 C14.01801662 22.52471303 11.07907732 21.81439169 6.375 21.5625 C1.31167684 21.20525061 1.31167684 21.20525061 -1.5625 19.3125 C-3.24472878 16.60630587 -4.12543449 14.0609793 -5 11 C-5.65411685 9.32836805 -6.31653318 7.65984798 -7 6 C-4.66666667 8.33333333 -2.33333333 10.66666667 0 13 C0 8.71 0 4.42 0 0 Z " fill="#3B3B3B" transform="translate(272,151)"/>
<path d="M0 0 C1.98 0 3.96 0 6 0 C5.42378906 0.18949219 4.84757812 0.37898437 4.25390625 0.57421875 C1.03541988 2.61017633 -0.28638206 5.55594623 -2.0625 8.8125 C-8.72769733 20.40414752 -16.43823835 29.96419487 -28 37 C-32.78672336 40.15720051 -37.43218295 43.46515569 -42.05859375 46.8515625 C-44.00283466 48.27165878 -45.9532862 49.68329508 -47.91015625 51.0859375 C-49.78344824 52.43099722 -51.64580438 53.79143768 -53.49609375 55.16796875 C-56 57 -56 57 -58.03515625 58.23828125 C-66.33323811 63.83720681 -68.34168878 76.87399235 -70.375 86.0625 C-71.8329796 91.91230771 -75.4606722 95.2369943 -80 99 C-80 96 -80 96 -77.72265625 93.5625 C-73.82965474 89.11962403 -72.87541003 83.60277413 -71.4375 78 C-67.38213779 62.4183763 -60.38786749 55.04018141 -47.16015625 46.14453125 C-43.94447937 43.96232283 -40.8484028 41.67307673 -37.78125 39.2890625 C-35.6014248 37.71155742 -33.31068363 36.37805831 -31 35 C-25.55195121 31.40769283 -20.39864869 27.86166434 -16 23 C-15.40832031 22.40058594 -14.81664062 21.80117187 -14.20703125 21.18359375 C-8.14614021 14.81789968 -4.11452962 7.69285725 0 0 Z " fill="#D5D5D5" transform="translate(153,210)"/>
<path d="M0 0 C0.66 0 1.32 0 2 0 C0.61476856 4.16310197 -1.30276565 6.70845596 -4.3125 9.875 C-11.05872324 16.999195 -14.61509088 22.48224418 -16.6875 32.125 C-17.08411354 33.87831423 -17.48376281 35.63094504 -17.88671875 37.3828125 C-18.07153809 38.18879883 -18.25635742 38.99478516 -18.44677734 39.82519531 C-19.0819119 42.32200848 -19.93445875 44.65483616 -21 47 C-20.34 47 -19.68 47 -19 47 C-18.82984375 46.16597656 -18.6596875 45.33195312 -18.484375 44.47265625 C-16.03534408 33.10029459 -13.2836868 24.00130174 -3.9375 16.5625 C-0.52267591 13.5836109 0.95909131 11.00332089 3 7 C3.66 7 4.32 7 5 7 C3.70757641 12.38509829 1.11604631 15.20774167 -2.875 18.8125 C-7.74355143 23.45711099 -11.09867743 27.41764349 -13 34 C-13.29261719 34.99 -13.58523437 35.98 -13.88671875 37 C-14.63590525 39.65774759 -15.33858828 42.31927824 -16 45 C-15.34 45 -14.68 45 -14 45 C-13.90074219 44.13246094 -13.80148438 43.26492188 -13.69921875 42.37109375 C-11.91136301 33.75143171 -5.82301464 26.37758746 0 20 C0.33 19.34 0.66 18.68 1 18 C1.66 18 2.32 18 3 18 C1.98216423 21.35885803 0.6082319 23.54376017 -1.75 26.0625 C-6.99032187 31.92084509 -10.61291388 39.28175842 -12 47 C-13 48 -13 48 -16.6875 48.25 C-21.47556427 48.75717377 -23.53421987 50.78177559 -27 54 C-27.66 54 -28.32 54 -29 54 C-29.495 52.515 -29.495 52.515 -30 51 C-28.53515625 49.89322917 -27.0703125 48.78645833 -25.60546875 47.6796875 C-21.38504627 43.26416033 -20.50742035 38.01704358 -19.6875 32.1875 C-17.80333018 20.97293142 -11.86120297 14.55426312 -4.171875 6.48046875 C-2.29882429 4.34128314 -1.09025105 2.59843168 0 0 Z " fill="#3E3E3E" transform="translate(48,240)"/>
<path d="M0 0 C3 1 3 1 4.3515625 3.58203125 C4.98191406 5.18111328 4.98191406 5.18111328 5.625 6.8125 C6.05039063 7.87082031 6.47578125 8.92914063 6.9140625 10.01953125 C9.25135038 16.43446165 9.25135038 16.43446165 8 19.25 C6 21 6 21 2.5625 21.5625 C-1 21 -1 21 -3.5 18.6875 C-3.995 17.800625 -4.49 16.91375 -5 16 C-4.67 15.01 -4.34 14.02 -4 13 C-4.928125 12.773125 -5.85625 12.54625 -6.8125 12.3125 C-10.54423567 10.77590296 -11.40328904 9.63695275 -13 6 C-13 5.01 -13 4.02 -13 3 C-12.22914063 2.86722656 -11.45828125 2.73445313 -10.6640625 2.59765625 C-9.66117188 2.42105469 -8.65828125 2.24445313 -7.625 2.0625 C-6.62726563 1.88847656 -5.62953125 1.71445313 -4.6015625 1.53515625 C-2.03090344 1.12287938 -2.03090344 1.12287938 0 0 Z " fill="#161616" transform="translate(161,117)"/>
<path d="M0 0 C0 0.33 0 0.66 0 1 C-1.093125 1.226875 -2.18625 1.45375 -3.3125 1.6875 C-7.00533659 2.64403985 -7.00533659 2.64403985 -8.6875 5.0625 C-9.40944398 6.67827939 -10.12057271 8.29962318 -10.78125 9.94140625 C-16.64883614 24.07925388 -26.03944153 33.91929998 -40 40 C-41.26650391 40.44472656 -41.26650391 40.44472656 -42.55859375 40.8984375 C-45.34144891 42.15406175 -46.81407214 43.57626499 -48.875 45.8125 C-52.33557885 49.42439693 -55.84327978 52.22885319 -60 55 C-60 54.01 -60 53.02 -60 52 C-60.66 51.67 -61.32 51.34 -62 51 C-60.97519531 50.32453125 -59.95039062 49.6490625 -58.89453125 48.953125 C-57.53377149 48.05220819 -56.17309902 47.15115954 -54.8125 46.25 C-54.13896484 45.8065625 -53.46542969 45.363125 -52.77148438 44.90625 C-49.03032605 42.42431082 -45.49011161 39.83014161 -42 37 C-39.78365148 35.48195307 -37.53568784 34.0231217 -35.28125 32.5625 C-25.420598 25.80862877 -19.38241507 16.47607599 -13.5012207 6.27050781 C-10.46549234 1.16767798 -10.46549234 1.16767798 -8.05957031 0.30102539 C-5.35863718 -0.09374115 -2.7249344 -0.06193033 0 0 Z " fill="#171717" transform="translate(165,210)"/>
<path d="M0 0 C0.54269531 0.40992188 1.08539063 0.81984375 1.64453125 1.2421875 C2.35996094 1.78101563 3.07539063 2.31984375 3.8125 2.875 C4.52019531 3.40867188 5.22789062 3.94234375 5.95703125 4.4921875 C7.60456297 5.70814781 9.29624211 6.86416141 11 8 C10.34 8 9.68 8 9 8 C8.731875 8.804375 8.46375 9.60875 8.1875 10.4375 C7.795625 11.283125 7.40375 12.12875 7 13 C6.01 13.33 5.02 13.66 4 14 C4.99 15.485 4.99 15.485 6 17 C10.34586828 17.39507893 12.32003497 17.45331002 16 15 C15.566875 15.7734375 15.566875 15.7734375 15.125 16.5625 C13.86159345 19.07757086 13.86159345 19.07757086 13.25 22.3125 C11.74688974 26.74667527 9.58302381 29.96557314 6 33 C3.8046875 33.6953125 3.8046875 33.6953125 2 34 C2.61488281 33.36384766 2.61488281 33.36384766 3.2421875 32.71484375 C7.03077668 28.59090098 8.87908934 25.49246223 10 20 C7.36 19.67 4.72 19.34 2 19 C1.61328125 19.53109375 1.2265625 20.0621875 0.828125 20.609375 C-1.91350693 24.32822227 -4.59107216 27.85329738 -8 31 C-8.99 30.67 -9.98 30.34 -11 30 C-10.113125 29.38125 -9.22625 28.7625 -8.3125 28.125 C-4.06433262 24.64372269 -2.16652882 19.93700152 0 15 C-0.61359375 14.87753906 -1.2271875 14.75507813 -1.859375 14.62890625 C-4.71006841 13.79138501 -6.03818928 12.17200472 -8 10 C-7.34 10 -6.68 10 -6 10 C-6 9.01 -6 8.02 -6 7 C-6.66 6.67 -7.32 6.34 -8 6 C-7.05125 5.7525 -6.1025 5.505 -5.125 5.25 C-1.90870494 4.33786225 -1.90870494 4.33786225 -0.8046875 1.921875 C-0.40636719 0.97054687 -0.40636719 0.97054687 0 0 Z " fill="#595959" transform="translate(170,132)"/>
<path d="M0 0 C2.56616632 3.84924948 2.55097676 6.4349304 3 11 C-2.61495138 13.86720922 -7.60649069 14.32790053 -13.8125 14.375 C-14.56587646 14.38853516 -15.31925293 14.40207031 -16.09545898 14.41601562 C-19.08484059 14.39184544 -21.41267429 14.35353586 -24.01171875 12.7890625 C-25.31454023 10.43059515 -25.21492092 8.65069139 -25 6 C-23.2984375 5.85304688 -23.2984375 5.85304688 -21.5625 5.703125 C-10.24704179 4.66116906 -10.24704179 4.66116906 0 0 Z " fill="#060606" transform="translate(159,95)"/>
<path d="M0 0 C0.33 0 0.66 0 1 0 C1.54772539 8.00287654 0.56875775 13.82933815 -3 21 C-3.44730469 21.90878906 -3.89460938 22.81757813 -4.35546875 23.75390625 C-7.61927418 30.04526309 -11.46293502 35.56357599 -16 41 C-15.01 41 -14.02 41 -13 41 C-13 44.09875672 -13.58261252 46.24421515 -14.5 49.1875 C-14.7784375 50.08855469 -15.056875 50.98960937 -15.34375 51.91796875 C-15.5603125 52.60503906 -15.776875 53.29210937 -16 54 C-18.76223278 51.23776722 -18.57856291 48.79293383 -19 45 C-19.39832031 45.69867188 -19.79664063 46.39734375 -20.20703125 47.1171875 C-20.73683594 48.02726562 -21.26664063 48.93734375 -21.8125 49.875 C-22.59560547 51.23238281 -22.59560547 51.23238281 -23.39453125 52.6171875 C-25 55 -25 55 -28 57 C-29 54 -29 54 -27.55859375 50.671875 C-26.86440231 49.35772016 -26.15659296 48.05069597 -25.4375 46.75 C-24.88920532 45.73619263 -24.88920532 45.73619263 -24.32983398 44.7019043 C-21.68403724 39.92930955 -18.67786692 36.03668321 -15 32 C-14.3194541 29.90081831 -14.3194541 29.90081831 -14 28 C-13.34 28 -12.68 28 -12 28 C-12 28.66 -12 29.32 -12 30 C-3.86062346 22.95071853 -1.72399488 10.08688233 0 0 Z " fill="#0E0E0E" transform="translate(65,228)"/>
<path d="M0 0 C2.475 0.495 2.475 0.495 5 1 C5 1.66 5 2.32 5 3 C6.32 3 7.64 3 9 3 C8.67 3.99 8.34 4.98 8 6 C6.453125 6.12375 6.453125 6.12375 4.875 6.25 C-0.40869717 7.27265107 -3.47004857 9.42633567 -7.1875 13.25 C-8.76344504 15.64108902 -9.54788054 17.39858395 -10.4375 20.0625 C-11.80527256 23.95256281 -13.30146678 25.93570239 -17 28 C-20.3125 28.25 -20.3125 28.25 -23 28 C-22.68546875 27.53851563 -22.3709375 27.07703125 -22.046875 26.6015625 C-19.02231812 21.9918463 -16.87192395 17.41491193 -14.90234375 12.2734375 C-13.85209755 9.62736267 -12.69912857 7.29012981 -11 5 C-10.01 4.67 -9.02 4.34 -8 4 C-8.99 3.34 -9.98 2.68 -11 2 C-8.69 2.33 -6.38 2.66 -4 3 C-4 3.66 -4 4.32 -4 5 C-1.36 4.67 1.28 4.34 4 4 C2.35 3.34 0.7 2.68 -1 2 C-0.67 1.34 -0.34 0.68 0 0 Z " fill="#090909" transform="translate(206,140)"/>
<path d="M0 0 C-0.67546875 0.32871094 -1.3509375 0.65742188 -2.046875 0.99609375 C-9.00517821 4.70651844 -11.39128516 7.7216856 -14 15 C-16.73500432 19.92300777 -18.78312068 21.90852177 -24 24 C-27.10027614 24.50696788 -30.17565333 24.64585173 -33.3125 24.75 C-34.11623047 24.79253906 -34.91996094 24.83507812 -35.74804688 24.87890625 C-44.05277461 25.23969088 -50.4910489 25.50757401 -57 20 C-62.60253224 18.22586479 -68.15865724 17.51382182 -74 17 C-70 14.33333333 -70 14.33333333 -67 14 C-56.08194842 16.58063037 -56.08194842 16.58063037 -53.84765625 19.51171875 C-50.96420327 21.83433098 -47.74839707 21.69421103 -44.1875 21.875 C-43.48818359 21.93429688 -42.78886719 21.99359375 -42.06835938 22.0546875 C-37.19697474 22.3463326 -34.11321395 21.59114359 -30 19 C-25.48228186 14.58495728 -24.17007413 11.16948179 -23 5 C-22.34 5 -21.68 5 -21 5 C-21.34978143 11.64584719 -22.80477672 14.83664827 -27 20 C-23.6365731 19.97350778 -23.6365731 19.97350778 -20 19 C-17.40382022 15.97112359 -16.05263175 13.13043521 -14.5625 9.4375 C-12.54169654 4.99173238 -9.97979951 2.31986634 -5.9375 -0.375 C-3.57161898 -1.13818743 -2.3473338 -0.67345544 0 0 Z " fill="#B3B3B3" transform="translate(211,147)"/>
<path d="M0 0 C-6.4851235 -0.89011499 -6.4851235 -0.89011499 -9.43774414 -1.52026367 C-28.65763914 -5.11884335 -45.94645735 -0.43283054 -62 10 C-69.21889434 14.98986271 -75.58322841 21.0389991 -82 27 C-82 22.97287338 -80.68758834 22.25461019 -77.875 19.4375 C-68.22255757 10.11179751 -57.56612961 2.86275514 -45 -2 C-44.14535156 -2.33902344 -43.29070312 -2.67804688 -42.41015625 -3.02734375 C-30.06742004 -7.15426788 -11.06025615 -7.3735041 0 0 Z " fill="#A2A2A2" transform="translate(308,98)"/>
<path d="M0 0 C4.57195239 -0.45719524 8.6622145 -0.79363517 12.5625 1.9375 C15.13114402 5.16477069 15.92832375 7.09012625 15.66015625 11.22265625 C14.47726428 16.19920174 12.08479998 20.64492036 9.8046875 25.19140625 C7.67751228 29.50369106 6.34745147 33.96734805 5.1171875 38.609375 C3.6553395 41.73752527 2.05467527 42.48394255 -1 44 C-1.71542969 44.39703125 -2.43085938 44.7940625 -3.16796875 45.203125 C-3.83441406 45.54859375 -4.50085938 45.8940625 -5.1875 46.25 C-6.19876953 46.78367187 -6.19876953 46.78367187 -7.23046875 47.328125 C-7.81441406 47.54984375 -8.39835937 47.7715625 -9 48 C-9.66 47.67 -10.32 47.34 -11 47 C-7.92476151 44.87662104 -5.17904826 43.07919442 -1.75 41.5625 C1.07625901 40.25224791 1.07625901 40.25224791 2.25 37.9375 C3.00806485 35.15118548 3.00806485 35.15118548 3.34375 32.875 C4.21713684 27.63467896 5.59311377 23.57622536 8.125 18.875 C10.80379669 13.84250331 11.65089644 10.64110248 11 5 C7.3321148 3.03810791 4.12751449 1.60698743 0 1 C0 0.67 0 0.34 0 0 Z " fill="#B5B4B5" transform="translate(279,171)"/>
<path d="M0 0 C0 2.97 0 5.94 0 9 C-4.22052007 11.11026004 -6.42238926 11.32620809 -11.0625 11.375 C-12.90521484 11.41753906 -12.90521484 11.41753906 -14.78515625 11.4609375 C-18 11 -18 11 -19.93359375 9.1640625 C-21 7 -21 7 -21 4 C-19.33710938 3.81824219 -19.33710938 3.81824219 -17.640625 3.6328125 C-16.17703766 3.46393704 -14.71349843 3.29464428 -13.25 3.125 C-12.52039063 3.04636719 -11.79078125 2.96773438 -11.0390625 2.88671875 C-7.40557579 2.45730668 -3.29409183 0 0 0 Z " fill="#0A0A0A" transform="translate(162,107)"/>
<path d="M0 0 C2.5928642 2.5928642 2.47985161 4.13809858 2.9296875 7.75 C3.08566406 8.91660156 3.24164063 10.08320312 3.40234375 11.28515625 C3.71341109 13.72999132 4.0208028 16.17529733 4.32421875 18.62109375 C5.45245848 26.99575129 6.94864736 34.80439011 12 41.75 C20.37792627 48.0334447 29.99603851 51.2569783 40 54 C40 54.33 40 54.66 40 55 C29.84290459 54.63724659 17.96965667 51.34796206 10.3125 44.375 C0.06216332 32.24656631 -0.28014838 15.22988462 0 0 Z " fill="#B1B1B1" transform="translate(161,90)"/>
<path d="M0 0 C2.475 0.495 2.475 0.495 5 1 C4.86183829 6.52646856 2.46405713 9.29324451 -1.015625 13.265625 C-4.62492558 16.42021055 -7.17870268 17.00482643 -11.98828125 16.9765625 C-13.43059919 16.87118767 -14.87207818 16.75372402 -16.3125 16.625 C-17.05306641 16.56828125 -17.79363281 16.5115625 -18.55664062 16.453125 C-20.37193743 16.31258589 -22.18611597 16.15772905 -24 16 C-24 15.67 -24 15.34 -24 15 C-23.09507812 14.92652344 -23.09507812 14.92652344 -22.171875 14.8515625 C-21.37265625 14.77679688 -20.5734375 14.70203125 -19.75 14.625 C-18.96109375 14.55539063 -18.1721875 14.48578125 -17.359375 14.4140625 C-14.89758349 13.98202624 -13.18363642 13.18605936 -11 12 C-10.195625 11.7525 -9.39125 11.505 -8.5625 11.25 C-5.01729749 9.52063292 -3.2849466 7.17353694 -1 4 C-0.14720662 1.78264561 -0.14720662 1.78264561 0 0 Z " fill="#080808" transform="translate(183,153)"/>
<path d="M0 0 C13.24249284 -0.45898242 25.94633842 -0.48446597 36.9609375 7.96484375 C40.12365613 11.12150353 42.11432392 14.60412147 43 19 C42.59160468 21.98945377 42.183909 22.816091 40 25 C39.731875 23.989375 39.46375 22.97875 39.1875 21.9375 C37.21065133 15.28076469 35.76537545 10.55440605 29.484375 7.05859375 C20.27756853 3.13556772 9.84268292 2.25431491 0 1 C0 0.67 0 0.34 0 0 Z " fill="#BCBCBC" transform="translate(120,69)"/>
<path d="M0 0 C18.41318879 -0.20459099 36.78563718 0.07775799 55 3 C55 3.33 55 3.66 55 4 C29.01034436 4.18945022 29.01034436 4.18945022 17.375 3.625 C16.65014404 3.59414307 15.92528809 3.56328613 15.1784668 3.53149414 C9.97365427 3.23940281 5.05475899 2.2544765 0 1 C0 0.67 0 0.34 0 0 Z " fill="#C9C9C9" transform="translate(108,54)"/>
<path d="M0 0 C3.55780196 0.60990891 6.6828589 1.5783681 10 3 C9.01 3.33 8.02 3.66 7 4 C8.80412643 7.26460973 9.83394693 8.88929795 13 11 C15.73457747 11.61394221 18.42928983 12.15285223 21.1875 12.625 C21.93708984 12.7590625 22.68667969 12.893125 23.45898438 13.03125 C25.30487928 13.36045419 27.15230309 13.68106498 29 14 C29 14.99 29 15.98 29 17 C22.9981863 17.21824777 17.80766296 16.5056904 12 15 C11.67 16.32 11.34 17.64 11 19 C6.82885451 14.82885451 5.61397985 10.1671144 4.02734375 4.64453125 C3.17582773 1.70214474 3.17582773 1.70214474 0 0 Z " fill="#DBDBDB" transform="translate(85,39)"/>
<path d="M0 0 C2 3 2 3 1.75 5.5625 C1 8 1 8 -1 10 C-4.375 10.4375 -4.375 10.4375 -8 10 C-10.5 7.6875 -10.5 7.6875 -12 5 C-11 2 -11 2 -9.2578125 1.015625 C-8.55398437 0.76296875 -7.85015625 0.5103125 -7.125 0.25 C-6.07699219 -0.14445312 -6.07699219 -0.14445312 -5.0078125 -0.546875 C-3 -1 -3 -1 0 0 Z " fill="#0D0D0D" transform="translate(168,128)"/>
<path d="M0 0 C0.67482422 0.48919922 0.67482422 0.48919922 1.36328125 0.98828125 C6.19234355 4.26894682 10.63032286 5.87998578 16.28125 7.25390625 C18.84477717 7.95740293 21.04659094 8.8521904 23.4375 10 C28.73331894 12.50347805 34.30447896 13.72790393 40 15 C40 15.33 40 15.66 40 16 C24.83614095 17.37853264 10.16584306 9.64059418 -3 3 C-2.01 2.67 -1.02 2.34 0 2 C0 1.34 0 0.68 0 0 Z " fill="#A3A3A3" transform="translate(51,37)"/>
<path d="M0 0 C2.52234319 0.08781267 5.0415165 0.19478007 7.5625 0.3125 C8.26697266 0.33505859 8.97144531 0.35761719 9.69726562 0.38085938 C16.77247317 0.73951045 22.93953338 2.80636321 28 8 C30.86725226 12.47815473 33.09160529 16.22896434 32.8125 21.625 C32.544375 22.40875 32.27625 23.1925 32 24 C30.55722368 21.15344131 29.18824896 18.28360325 27.875 15.375 C27.52179688 14.59898438 27.16859375 13.82296875 26.8046875 13.0234375 C26 11 26 11 26 9 C21.6130074 6.49930643 16.89127009 5.80362508 11.99609375 4.78125 C9 4 9 4 6 2 C4.0103005 1.60986284 2.00980131 1.26797351 0 1 C0 0.67 0 0.34 0 0 Z " fill="#AAAAAA" transform="translate(148,55)"/>
<path d="M0 0 C1.43472656 -0.02126953 1.43472656 -0.02126953 2.8984375 -0.04296875 C5.65510017 0.19004428 7.27447395 0.77829836 9.625 2.1875 C7.975 2.1875 6.325 2.1875 4.625 2.1875 C6.5574854 4.334706 8.3244514 5.62637147 10.8125 7.1875 C11.740625 7.8475 12.66875 8.5075 13.625 9.1875 C13.625 10.1775 13.625 11.1675 13.625 12.1875 C13.11525635 11.76452637 12.6055127 11.34155273 12.08032227 10.90576172 C5.63105444 6.03215509 0.51607388 5.29242789 -7.4375 5.3125 C-9.02208008 5.2815625 -9.02208008 5.2815625 -10.63867188 5.25 C-13.21824784 5.20331084 -15.79509199 5.18302044 -18.375 5.1875 C-18.375 4.8575 -18.375 4.5275 -18.375 4.1875 C-12.93 3.6925 -12.93 3.6925 -7.375 3.1875 C-7.375 2.5275 -7.375 1.8675 -7.375 1.1875 C-4.801671 -0.0991645 -2.87276962 0.01925449 0 0 Z " fill="#3E3E3E" transform="translate(265.375,74.8125)"/>
<path d="M0 0 C0.66 0 1.32 0 2 0 C1.96566524 8.03433476 1.96566524 8.03433476 -1.25 11.25 C-6.539286 14.06400437 -12.37788346 15.96469372 -18 18 C-18.33 16.35 -18.66 14.7 -19 13 C-17.576875 12.6596875 -17.576875 12.6596875 -16.125 12.3125 C-11.13195403 10.8523659 -6.31114098 8.94050096 -2 6 C-0.26079687 2.89050521 -0.26079687 2.89050521 0 0 Z " fill="#171717" transform="translate(284,206)"/>
<path d="M0 0 C1.8125 0.875 1.8125 0.875 3.8125 2.875 C3.48278521 6.17214793 3.1898161 7.4976839 0.8125 9.875 C-2.6875 10.125 -2.6875 10.125 -6.1875 9.875 C-6.8475 9.215 -7.5075 8.555 -8.1875 7.875 C-8.08310638 4.74319154 -7.11302183 3.80052183 -4.875 1.5625 C-2.1875 -0.125 -2.1875 -0.125 0 0 Z " fill="#090909" transform="translate(173.1875,135.125)"/>
<path d="M0 0 C0.33 1.32 0.66 2.64 1 4 C1.66 4 2.32 4 3 4 C2.67 7.3 2.34 10.6 2 14 C2.99 13.4225 3.98 12.845 5 12.25 C6.33103375 11.49592644 7.66451064 10.7461541 9 10 C9.66 9.63003906 10.32 9.26007813 11 8.87890625 C15.3995378 6.53305895 19.02607297 5.41449392 24 5 C24.33 5.66 24.66 6.32 25 7 C23.78763672 7.23783203 23.78763672 7.23783203 22.55078125 7.48046875 C14.18974304 9.29375641 14.18974304 9.29375641 8 15 C7.401875 15.53625 6.80375 16.0725 6.1875 16.625 C4.67319006 18.07561063 4.67319006 18.07561063 5 21 C4.01 20.67 3.02 20.34 2 20 C1.03929566 17.11788698 0.89418117 15.30149956 0.9375 12.3125 C0.94652344 11.50425781 0.95554688 10.69601563 0.96484375 9.86328125 C0.98224609 8.94095703 0.98224609 8.94095703 1 8 C0.34 8 -0.32 8 -1 8 C-1.125 2.25 -1.125 2.25 0 0 Z " fill="#5F5F5F" transform="translate(201,119)"/>
<path d="M0 0 C2.97 0.495 2.97 0.495 6 1 C6.89942821 3.94358324 7.2406034 5.44360465 6 8.3125 C3.07926963 10.77686625 0.6929562 10.27871368 -3 10 C-3.66 8.68 -4.32 7.36 -5 6 C-4.360625 5.38125 -3.72125 4.7625 -3.0625 4.125 C-0.96116416 2.17402388 -0.96116416 2.17402388 0 0 Z " fill="#0A0A0A" transform="translate(179,140)"/>
<path d="M0 0 C-0.96679688 0.4846875 -1.93359375 0.969375 -2.9296875 1.46875 C-15.61541834 7.94886444 -25.60645673 16.35732107 -36 26 C-36 21.97287338 -34.68758834 21.25461019 -31.875 18.4375 C-9.63852015 -3.13567577 -9.63852015 -3.13567577 0 0 Z " fill="#CBCBCB" transform="translate(262,99)"/>
<path d="M0 0 C1.98 0 3.96 0 6 0 C5.42378906 0.18949219 4.84757812 0.37898437 4.25390625 0.57421875 C1.03625658 2.60964705 -0.28853714 5.55530146 -2.0625 8.8125 C-6.53095659 16.67319531 -11.95923481 23.30434811 -18 30 C-19.32 29.67 -20.64 29.34 -22 29 C-21.28714844 28.47535156 -20.57429687 27.95070312 -19.83984375 27.41015625 C-16.62182729 24.67904737 -14.14203511 21.75877039 -11.5625 18.4375 C-11.08385498 17.82632324 -10.60520996 17.21514648 -10.11206055 16.58544922 C-6.11684982 11.37454037 -2.86110987 5.91537484 0 0 Z " fill="#A2A2A2" transform="translate(153,210)"/>
<path d="M0 0 C3.17860234 1.05953411 3.97919068 1.96357156 5.67578125 4.93359375 C6.48595703 6.66802734 6.48595703 6.66802734 7.3125 8.4375 C9.99964016 14.00705222 9.99964016 14.00705222 14.9375 17.3125 C15.948125 17.539375 16.95875 17.76625 18 18 C15.41704268 19.68885671 14.07142606 20.00291535 10.9375 19.875 C8 19 8 19 6.125 17.125 C5 15 5 15 5 12 C4.01 11.67 3.02 11.34 2 11 C2.66 10.67 3.32 10.34 4 10 C3.43454163 6.04179141 2.19097652 3.3340947 0 0 Z " fill="#4A4A4A" transform="translate(316,143)"/>
<path d="M0 0 C-4.06119523 2.70746348 -6.77770945 3.12739339 -11.55078125 3.1328125 C-12.64197266 3.13410156 -13.73316406 3.13539062 -14.85742188 3.13671875 C-15.99759766 3.13285156 -17.13777344 3.12898438 -18.3125 3.125 C-19.44107422 3.12886719 -20.56964844 3.13273437 -21.73242188 3.13671875 C-22.82748047 3.13542969 -23.92253906 3.13414063 -25.05078125 3.1328125 C-26.04762939 3.13168457 -27.04447754 3.13055664 -28.0715332 3.12939453 C-31.11673402 2.9948421 -34.00623186 2.56009745 -37 2 C-37 1.67 -37 1.34 -37 1 C-36.23856689 0.97494385 -35.47713379 0.9498877 -34.69262695 0.92407227 C-31.23242624 0.80780952 -27.77247746 0.68522022 -24.3125 0.5625 C-23.11431641 0.52318359 -21.91613281 0.48386719 -20.68164062 0.44335938 C-19.52470703 0.40146484 -18.36777344 0.35957031 -17.17578125 0.31640625 C-16.11270752 0.27974854 -15.04963379 0.24309082 -13.9543457 0.20532227 C-11.02898417 0.06716938 -11.02898417 0.06716938 -8.32104492 -0.54711914 C-5.35003252 -1.12682126 -2.9390091 -0.61514144 0 0 Z " fill="#7A7A7A" transform="translate(107,71)"/>
<path d="M0 0 C1.04027344 0.24105469 2.08054688 0.48210937 3.15234375 0.73046875 C6.0625 1.8125 6.0625 1.8125 7.95703125 3.84765625 C10.90802462 6.60155173 13.95371261 6.71236428 17.8125 7.0625 C18.50988281 7.13984375 19.20726562 7.2171875 19.92578125 7.296875 C21.63638433 7.48433835 23.34929271 7.65055503 25.0625 7.8125 C25.0625 8.1425 25.0625 8.4725 25.0625 8.8125 C19.9470514 9.99298814 15.15806642 10.0673783 10.0625 8.8125 C8.35999607 7.52524093 6.69185241 6.19118281 5.0625 4.8125 C-0.54003224 3.03836479 -6.09615724 2.32632182 -11.9375 1.8125 C-7.34913679 -1.24640881 -5.23127898 -1.27387139 0 0 Z " fill="#8B8B8B" transform="translate(148.9375,162.1875)"/>
<path d="M0 0 C2.99501045 2.99501045 2.96747787 6.64707617 3.5625 10.6875 C3.75646362 11.95460815 3.75646362 11.95460815 3.9543457 13.24731445 C5.06679411 20.81666109 5.66874471 28.35828317 6 36 C1.10350923 31.10350923 1.40337161 23.53101954 0.875 17 C0.78863281 16.02804688 0.70226562 15.05609375 0.61328125 14.0546875 C0.21006379 9.3568841 -0.11161932 4.71990274 0 0 Z " fill="#D4D4D4" transform="translate(161,90)"/>
<path d="M0 0 C0.33 0 0.66 0 1 0 C1.54770773 8.00261849 0.56853208 13.82999555 -3 21 C-3.47050781 21.95519531 -3.94101562 22.91039062 -4.42578125 23.89453125 C-7.08185468 29.02137066 -9.59248377 33.24064792 -14 37 C-12.71367448 33.47255063 -11.06944641 30.32859523 -9.18164062 27.08813477 C-4.18015325 18.38753438 -1.82683294 9.81922706 0 0 Z " fill="#7B7B7B" transform="translate(65,228)"/>
<path d="M0 0 C0.33 0 0.66 0 1 0 C1.49658206 12.06510491 -0.32203337 18.701829 -6.6953125 28.80078125 C-8.13413898 31.04896923 -8.13413898 31.04896923 -9 34 C-12.0625 35.1875 -12.0625 35.1875 -15 36 C-14.63648438 35.56171875 -14.27296875 35.1234375 -13.8984375 34.671875 C-5.40270161 23.95417742 -1.92303043 13.29252612 0 0 Z " fill="#7A7A7A" transform="translate(73,228)"/>
<path d="M0 0 C0.66 0.33 1.32 0.66 2 1 C2 1.66 2 2.32 2 3 C1.01 3.33 0.02 3.66 -1 4 C-5.24725441 5.79823271 -7.8718795 8.68077869 -11 11.9921875 C-13.76047154 14.76344213 -16.75089746 16.83393164 -20 19 C-20 18.01 -20 17.02 -20 16 C-20.66 15.67 -21.32 15.34 -22 15 C-20.97519531 14.32453125 -19.95039062 13.6490625 -18.89453125 12.953125 C-17.53377149 12.05220819 -16.17309902 11.15115954 -14.8125 10.25 C-14.13896484 9.8065625 -13.46542969 9.363125 -12.77148438 8.90625 C-9.03094284 6.42472 -5.48856021 3.83166496 -2 1 C-1.34 0.67 -0.68 0.34 0 0 Z " fill="#242424" transform="translate(125,246)"/>
<path d="M0 0 C0.66 0 1.32 0 2 0 C0.61476856 4.16310197 -1.30276565 6.70845596 -4.3125 9.875 C-11.26837313 17.45612015 -14.73551007 22.81900054 -17 33 C-17.33 33 -17.66 33 -18 33 C-18.63348594 26.34839763 -17.94898997 22.78851745 -13.9921875 17.40234375 C-10.86162792 13.6272572 -7.55355667 10.0312345 -4.171875 6.48046875 C-2.29882429 4.34128314 -1.09025105 2.59843168 0 0 Z " fill="#888888" transform="translate(48,240)"/>
<path d="M0 0 C2.68092691 2.68092691 2.38670257 4.39167363 2.625 8.125 C2.69976562 9.22070312 2.77453125 10.31640625 2.8515625 11.4453125 C2.92503906 12.70988281 2.92503906 12.70988281 3 14 C2.34 14 1.68 14 1 14 C1 15.32 1 16.64 1 18 C5.29 18.33 9.58 18.66 14 19 C14 19.33 14 19.66 14 20 C11.92002174 20.2765289 9.8356692 20.52030075 7.75 20.75 C6.58984375 20.88921875 5.4296875 21.0284375 4.234375 21.171875 C1 21 1 21 -1.3515625 19.19921875 C-3.32961961 16.56024682 -4.09659419 14.16192034 -5 11 C-5.65411685 9.32836805 -6.31653318 7.65984798 -7 6 C-4.66666667 8.33333333 -2.33333333 10.66666667 0 13 C0 8.71 0 4.42 0 0 Z " fill="#6D6D6D" transform="translate(272,151)"/>
<path d="M0 0 C0.66 0.33 1.32 0.66 2 1 C1.33613126 5.02050843 0.08563932 8.53854947 -1.4375 12.3125 C-3.35290097 17.18404004 -4.89739783 21.88793539 -6 27 C-8.92818553 18.21544341 -5.17338762 10.234364 -1.25 2.3125 C-0.8375 1.549375 -0.425 0.78625 0 0 Z " fill="#282828" transform="translate(292,187)"/>
<path d="M0 0 C0.66 0.33 1.32 0.66 2 1 C0.68 1.33 -0.64 1.66 -2 2 C-2 2.66 -2 3.32 -2 4 C-0.78763672 4.27263672 -0.78763672 4.27263672 0.44921875 4.55078125 C1.51785156 4.80214844 2.58648437 5.05351563 3.6875 5.3125 C4.74324219 5.55613281 5.79898438 5.79976563 6.88671875 6.05078125 C9.97575628 6.99260825 12.31817964 8.22372937 15 10 C13 11 13 11 11.1875 10.51171875 C10.465625 10.23972656 9.74375 9.96773437 9 9.6875 C4.07698566 7.9424315 -0.86521605 6.91118296 -6 6 C-6 6.66 -6 7.32 -6 8 C-7.98 8.33 -9.96 8.66 -12 9 C-11.01 8.67 -10.02 8.34 -9 8 C-8.7525 7.401875 -8.505 6.80375 -8.25 6.1875 C-6.27417573 2.72980753 -3.55807231 1.71549915 0 0 Z " fill="#595959" transform="translate(240,81)"/>
<path d="M0 0 C0.66 0 1.32 0 2 0 C0.71068074 5.3550254 -1.82598006 8.12339276 -5.8125 11.6875 C-11.28460358 16.82105583 -14.56548597 21.80969111 -17 29 C-18.42639156 24.73997151 -17.42517558 22.38879624 -15.57421875 18.43359375 C-13.11964913 14.63906056 -9.79028036 12.03822939 -6.3515625 9.15234375 C-3.30274541 6.36181515 -1.73942393 3.71604202 0 0 Z " fill="#6E6E6E" transform="translate(51,247)"/>
<path d="M0 0 C-2.8108863 1.8739242 -4.8866285 2.67761856 -8.0625 3.6875 C-18.13031973 7.30978435 -24.7852434 12.65159488 -30 22 C-30.33 21.01 -30.66 20.02 -31 19 C-26.58415274 10.33459261 -17.77259323 4.59381446 -9 1 C-5.91021491 0.09881268 -3.22182876 -0.08949524 0 0 Z " fill="#8B8B8B" transform="translate(298,114)"/>
<path d="M0 0 C0.33 0 0.66 0 1 0 C1.67544173 8.44302159 0.17656899 17.84136198 -5.046875 24.6796875 C-6.95701914 26.58305808 -8.87649709 28.34036909 -11 30 C-11 27 -11 27 -8.70703125 24.4921875 C-5.04572294 20.31558395 -4.04316604 15.40458596 -2.6875 10.125 C-2.29208008 8.66320312 -2.29208008 8.66320312 -1.88867188 7.171875 C-1.24504841 4.78461704 -0.61601186 2.39450287 0 0 Z " fill="#AFAFAF" transform="translate(84,279)"/>
<path d="M0 0 C1.49739583 1.26953125 2.99479167 2.5390625 4.4921875 3.80859375 C6.00594079 5.0878152 6.00594079 5.0878152 8 6 C8 6.99 8 7.98 8 9 C7.34 9 6.68 9 6 9 C5.79375 9.680625 5.5875 10.36125 5.375 11.0625 C3.57152999 14.91536774 1.18720542 18.16353968 -2 21 C-4.1953125 21.703125 -4.1953125 21.703125 -6 22 C-5.61328125 21.56429687 -5.2265625 21.12859375 -4.828125 20.6796875 C1.09795668 13.96694029 1.09795668 13.96694029 5 6 C4.21625 5.731875 3.4325 5.46375 2.625 5.1875 C0 4 0 4 -2 1 C-1.34 0.67 -0.68 0.34 0 0 Z " fill="#A5A5A5" transform="translate(156,133)"/>
<path d="M0 0 C0 0.33 0 0.66 0 1 C-1.0621875 1.06316406 -2.124375 1.12632813 -3.21875 1.19140625 C-12.30108885 1.91275499 -17.70850487 2.96149357 -24 10 C-24.99 10.66 -25.98 11.32 -27 12 C-26.34 10.35 -25.68 8.7 -25 7 C-25.66 6.67 -26.32 6.34 -27 6 C-25.68 4.68 -24.36 3.36 -23 2 C-23 2.66 -23 3.32 -23 4 C-22.26910156 3.566875 -22.26910156 3.566875 -21.5234375 3.125 C-14.42082418 -0.59418661 -7.88119812 -0.40358909 0 0 Z " fill="#686868" transform="translate(230,106)"/>
<path d="M0 0 C2.86724686 0.57344937 3.8614515 0.8614515 6 3 C6.64125474 7.70531076 6.56260313 11.82791014 4.5 16.125 C4.005 16.74375 3.51 17.3625 3 18 C2.04761955 15.14285866 1.94602352 13.61966875 2.0625 10.6875 C2.12040949 6.74965474 1.50950809 3.67942597 0 0 Z " fill="#171717" transform="translate(291,170)"/>
<path d="M0 0 C0.99 0.33 1.98 0.66 3 1 C2.34 1 1.68 1 1 1 C0.7525 1.5878125 0.505 2.175625 0.25 2.78125 C-3.3175194 9.11359693 -10.88482982 12.92172415 -17.4921875 15.35546875 C-21.43428448 16.36862452 -24.94939024 16.26132966 -29 16 C-29 15.67 -29 15.34 -29 15 C-27.64068359 14.77957031 -27.64068359 14.77957031 -26.25390625 14.5546875 C-14.76863982 12.43994003 -7.86321258 8.46807509 0 0 Z " fill="#8A8A8A" transform="translate(137,113)"/>
<path d="M0 0 C0.66 0.33 1.32 0.66 2 1 C0.85994953 4.07813627 -0.17135195 5.12665144 -2.875 7.125 C-7.08917781 10.3992509 -8.37529712 15.07810598 -10 20 C-10.33 20 -10.66 20 -11 20 C-11.46291314 14.21358581 -10.65449013 11.497834 -7 7 C-4.7293022 4.59801989 -2.39691978 2.27572721 0 0 Z " fill="#CCCCCC" transform="translate(96,263)"/>
<path d="M0 0 C0.66 0.66 1.32 1.32 2 2 C1.01 3.485 1.01 3.485 0 5 C0.99 5 1.98 5 3 5 C2.71125 5.66 2.4225 6.32 2.125 7 C0.76562701 10.62499465 -0.10624639 14.23346693 -1 18 C-3.76477453 15.23522547 -3.52458441 12.8033247 -4 9 C-4.33 8.34 -4.66 7.68 -5 7 C-3.35 4.69 -1.7 2.38 0 0 Z " fill="#252525" transform="translate(50,264)"/>
<path d="M0 0 C5.86608292 0.69289741 11.67739587 1.57151933 17.5 2.5625 C18.32242188 2.70107422 19.14484375 2.83964844 19.9921875 2.98242188 C21.99504541 3.32011303 23.99755959 3.65984185 26 4 C21.44190786 7.0387281 17.25317941 5.79637908 12 5 C9.59633486 4.45165101 7.34222872 3.78074291 5 3 C4.67 3.99 4.34 4.98 4 6 C3.67 4.35 3.34 2.7 3 1 C2.01 0.67 1.02 0.34 0 0 Z " fill="#2E2E2E" transform="translate(47,67)"/>
<path d="M0 0 C8.89543642 -0.19865739 17.32910197 -0.33447255 26 2 C21.85639731 4.76240179 18.6888299 3.705915 14 3 C12.77796875 2.82855469 11.5559375 2.65710938 10.296875 2.48046875 C6.86298314 1.99736048 3.43106951 1.50270293 0 1 C0 0.67 0 0.34 0 0 Z " fill="#898989" transform="translate(120,69)"/>
<path d="M0 0 C0 0.99 0 1.98 0 3 C-6.8218683 3.38614349 -12.49577707 2.00865708 -19 0 C-12.60923857 -3.50102583 -6.67342687 -1.87324263 0 0 Z " fill="#A1A0A1" transform="translate(114,53)"/>
<path d="M0 0 C1.65 0.33 3.3 0.66 5 1 C5 1.66 5 2.32 5 3 C6.32 3 7.64 3 9 3 C8.67 3.99 8.34 4.98 8 6 C6.3603125 6.2165625 6.3603125 6.2165625 4.6875 6.4375 C1.06877013 6.88288104 1.06877013 6.88288104 -2 8 C-2 7.34 -2 6.68 -2 6 C-2.556875 5.87625 -3.11375 5.7525 -3.6875 5.625 C-6.22114364 4.94023145 -8.57921032 4.00866237 -11 3 C-7.98968256 2.06576355 -7.13349732 1.95550089 -4 3 C-4 3.66 -4 4.32 -4 5 C-1.36 4.67 1.28 4.34 4 4 C1.525 3.01 1.525 3.01 -1 2 C-0.67 1.34 -0.34 0.68 0 0 Z " fill="#2F2F2F" transform="translate(206,140)"/>
<path d="M0 0 C0.33 0.66 0.66 1.32 1 2 C1.66 2 2.32 2 3 2 C2.55171782 4.61497941 2.03223556 6.92344056 1 9.375 C-0.15314716 12.10615163 -0.15314716 12.10615163 -0.5 15.625 C-1 19 -1 19 -3 22 C-3.66 22 -4.32 22 -5 22 C-4.11713151 17.36261707 -3.02682236 12.77959036 -1.9375 8.1875 C-1.75123047 7.39923828 -1.56496094 6.61097656 -1.37304688 5.79882812 C-0.91612688 3.86570508 -0.45816755 1.93282775 0 0 Z " fill="#0C0C0C" transform="translate(32,265)"/>
<path d="M0 0 C0.99 0.33 1.98 0.66 3 1 C3.5625 2.9375 3.5625 2.9375 4 5 C4.66 5.66 5.32 6.32 6 7 C4.20866022 7.05391993 2.41686101 7.09275571 0.625 7.125 C-0.37273438 7.14820313 -1.37046875 7.17140625 -2.3984375 7.1953125 C-5 7 -5 7 -7 5 C-6.030625 4.360625 -5.06125 3.72125 -4.0625 3.0625 C-1.23963731 1.3034741 -1.23963731 1.3034741 0 0 Z " fill="#E0DFE0" transform="translate(64,318)"/>
<path d="M0 0 C0 6.73799398 -3.17750496 11.7064658 -7.40234375 16.65234375 C-9.23944466 18.20197655 -10.65369935 18.59965928 -13 19 C-12.60167969 18.59910156 -12.20335937 18.19820312 -11.79296875 17.78515625 C-7.99252831 13.7073114 -6.24026178 10.29136926 -4.72265625 4.95703125 C-3.76943579 2.37560719 -2.41953341 1.2514828 0 0 Z " fill="#868686" transform="translate(185,147)"/>
<path d="M0 0 C0.66 0 1.32 0 2 0 C2 0.66 2 1.32 2 2 C1.34 2 0.68 2 0 2 C-2.25433614 7.56069582 -2.59961828 13.0785651 -3 19 C-5 16 -5 16 -5 12 C-9.455 12.495 -9.455 12.495 -14 13 C-13.67 12.34 -13.34 11.68 -13 11 C-10.36 11 -7.72 11 -5 11 C-4.9175 10.29875 -4.835 9.5975 -4.75 8.875 C-3.81990995 5.3096548 -2.23313631 2.90984428 0 0 Z " fill="#3F3F3F" transform="translate(302,117)"/>
<path d="M0 0 C0 0.33 0 0.66 0 1 C-6.93 1 -13.86 1 -21 1 C-20 -1 -20 -1 -18.4375 -1.625 C-11.80837623 -2.6448652 -6.36634968 -1.81895705 0 0 Z " fill="#636363" transform="translate(244,96)"/>
<path d="M0 0 C0.67482422 0.48919922 0.67482422 0.48919922 1.36328125 0.98828125 C6.32532267 4.35928734 10.93185434 6.01360696 16.77734375 7.32421875 C17.51082031 7.54722656 18.24429688 7.77023438 19 8 C19.33 8.66 19.66 9.32 20 10 C13.99864184 11.83108532 10.39963917 9.76687008 5.125 7.0625 C4.34125 6.67642578 3.5575 6.29035156 2.75 5.89257812 C0.82631489 4.94246536 -1.08784616 3.9731117 -3 3 C-2.01 2.67 -1.02 2.34 0 2 C0 1.34 0 0.68 0 0 Z " fill="#797979" transform="translate(51,37)"/>
<path d="M0 0 C0.66 0 1.32 0 2 0 C0.97030315 3.3979996 -0.46420825 5.66023866 -2.8125 8.25 C-6.28709677 12.11730304 -8.63850829 16.39195645 -11 21 C-11.66015625 19.265625 -11.66015625 19.265625 -12 17 C-10.99609375 14.921875 -10.99609375 14.921875 -9.4375 12.75 C-8.60798828 11.58404297 -8.60798828 11.58404297 -7.76171875 10.39453125 C-7.18035156 9.60433594 -6.59898438 8.81414062 -6 8 C-5.17435547 6.83017578 -5.17435547 6.83017578 -4.33203125 5.63671875 C-1.35348476 1.4961714 -1.35348476 1.4961714 0 0 Z " fill="#747474" transform="translate(49,258)"/>
<path d="M0 0 C0.66 0 1.32 0 2 0 C1.65021857 6.64584719 0.19522328 9.83664827 -4 15 C-3.34 15.66 -2.68 16.32 -2 17 C-4.97 17 -7.94 17 -11 17 C-10.2575 16.443125 -9.515 15.88625 -8.75 15.3125 C-3.21122491 10.65489367 -1.41169985 6.9408576 0 0 Z " fill="#6E6E6E" transform="translate(188,152)"/>
<path d="M0 0 C2.56336254 0.11446272 5.12513445 0.24119501 7.6875 0.375 C8.40873047 0.4059375 9.12996094 0.436875 9.87304688 0.46875 C13.97210394 0.69335587 17.24368459 1.17740909 21 3 C21 3.99 21 4.98 21 6 C19.06115111 5.71743908 17.12394039 5.4236207 15.1875 5.125 C14.10855469 4.96257813 13.02960938 4.80015625 11.91796875 4.6328125 C9 4 9 4 6 2 C4.0103005 1.60986284 2.00980131 1.26797351 0 1 C0 0.67 0 0.34 0 0 Z " fill="#909090" transform="translate(148,55)"/>
<path d="M0 0 C0.66 0 1.32 0 2 0 C1.56917524 6.89319614 -4.15526747 12.52793921 -9 17 C-9.99 16.67 -10.98 16.34 -12 16 C-10.700625 15.1028125 -10.700625 15.1028125 -9.375 14.1875 C-4.82199017 10.45836814 -2.56170006 5.18698843 0 0 Z " fill="#858585" transform="translate(171,146)"/>
<path d="M0 0 C0.66 0.99 1.32 1.98 2 3 C-2.23039213 8.18190891 -6.27835509 12.47898775 -12 16 C-12.99 16 -13.98 16 -15 16 C-15 15.34 -15 14.68 -15 14 C-14.22076172 13.67128906 -14.22076172 13.67128906 -13.42578125 13.3359375 C-6.92304345 10.37905488 -2.85563785 6.74968946 0 0 Z " fill="#787878" transform="translate(152,133)"/>
<path d="M0 0 C1.08667969 0.28746094 2.17335937 0.57492188 3.29296875 0.87109375 C4.12441406 1.09925781 4.95585937 1.32742187 5.8125 1.5625 C5.4825 2.2225 5.1525 2.8825 4.8125 3.5625 C-0.9375 3.6875 -0.9375 3.6875 -3.1875 2.5625 C-4.72418865 2.33782169 -6.26718054 2.15453195 -7.8125 2 C-8.62976563 1.91621094 -9.44703125 1.83242187 -10.2890625 1.74609375 C-10.91554687 1.68550781 -11.54203125 1.62492188 -12.1875 1.5625 C-7.4333562 -1.6069292 -5.37624346 -1.44522674 0 0 Z " fill="#4D4D4D" transform="translate(149.1875,162.4375)"/>
<path d="M0 0 C4.45391535 1.49447049 5.62863851 4.4626664 7.6875 8.5 C8.28949219 9.6653125 8.89148438 10.830625 9.51171875 12.03125 C10.34184692 13.68714872 11.17161442 15.34322884 12 17 C7.54608465 15.50552951 6.37136149 12.5373336 4.3125 8.5 C3.40951172 6.75203125 3.40951172 6.75203125 2.48828125 4.96875 C1.65815308 3.31285128 0.82838558 1.65677116 0 0 Z " fill="#AFAFAF" transform="translate(316,143)"/>
<path d="M0 0 C0.66 0 1.32 0 2 0 C2.84406458 2.36546493 3.21729813 3.50952707 2.1796875 5.8515625 C-0.51425189 9.5133843 -2.40399799 11.81817091 -7 13 C-5.88193568 10.48435529 -4.70466017 8.64201233 -2.9375 6.5 C-1.13355073 4.17232353 -0.42308458 2.8558209 0 0 Z " fill="#181818" transform="translate(51,256)"/>
<path d="M0 0 C-0.68707031 0.35191406 -1.37414062 0.70382813 -2.08203125 1.06640625 C-8.28697707 4.29492799 -8.28697707 4.29492799 -12.125 9.875 C-12.41375 10.90625 -12.7025 11.9375 -13 13 C-13.66 12.67 -14.32 12.34 -15 12 C-14.72866909 7.38737449 -12.79116761 5.29751918 -9.55078125 2.296875 C-6.03455453 -0.64364709 -4.37611887 -1.24383462 0 0 Z " fill="#8B8B8B" transform="translate(211,147)"/>
<path d="M0 0 C0.66 1.32 1.32 2.64 2 4 C-0.55930079 8.77736148 -5.16265087 10.2142888 -10 12 C-11.32739631 12.3562414 -12.65929996 12.69765534 -14 13 C-11.54580972 10.13677801 -9.26902327 8.57438309 -5.875 7.0625 C-2.85046576 5.65142548 -2.16219821 5.29736339 -0.5 2.25 C-0.335 1.5075 -0.17 0.765 0 0 Z " fill="#AAAAAA" transform="translate(282,206)"/>
<path d="M0 0 C0.99 0.99 1.98 1.98 3 3 C0.69 4.65 -1.62 6.3 -4 8 C-3.21693046 11.74691447 -3.21693046 11.74691447 -2 14 C-4.46800047 12.84826645 -6.04783565 11.95216435 -8 10 C-7.34 10 -6.68 10 -6 10 C-6 9.01 -6 8.02 -6 7 C-6.66 6.67 -7.32 6.34 -8 6 C-7.05125 5.7525 -6.1025 5.505 -5.125 5.25 C-1.91306809 4.3142923 -1.91306809 4.3142923 -0.625 1.875 C-0.41875 1.25625 -0.2125 0.6375 0 0 Z " fill="#707070" transform="translate(170,132)"/>
<path d="M0 0 C3.48181674 1.16060558 3.83629557 2.24972069 5.68359375 5.234375 C8.2507671 8.67758674 11.69532834 11.28888587 15 14 C10.09079946 14 7.39613327 10.29363428 4 7 C0 2.5 0 2.5 0 0 Z " fill="#888888" transform="translate(179,120)"/>
<path d="M0 0 C-2.45334555 1.36396462 -4.91191234 2.71634169 -7.375 4.0625 C-8.42300781 4.64741211 -8.42300781 4.64741211 -9.4921875 5.24414062 C-11.29610184 6.22415178 -13.14583482 7.11875071 -15 8 C-15.66 7.67 -16.32 7.34 -17 7 C-15.58531689 6.03874097 -14.1681636 5.08111675 -12.75 4.125 C-11.96109375 3.59132813 -11.1721875 3.05765625 -10.359375 2.5078125 C-4.4220156 -1.28659268 -4.4220156 -1.28659268 0 0 Z " fill="#D1D1D1" transform="translate(262,99)"/>
<path d="M0 0 C0.495 0.804375 0.99 1.60875 1.5 2.4375 C4.95695939 5.98088338 7.14788209 5.7573941 12 6 C11.01 6.66 10.02 7.32 9 8 C8.67 8.99 8.34 9.98 8 11 C7.01 11.33 6.02 11.66 5 12 C5.33 10.35 5.66 8.7 6 7 C5.21625 6.9175 4.4325 6.835 3.625 6.75 C1 6 1 6 -0.375 4.0625 C-1 2 -1 2 0 0 Z " fill="#BEBEBE" transform="translate(148,123)"/>
<path d="M0 0 C2.86724686 0.57344937 3.8614515 0.8614515 6 3 C5.67 3.99 5.34 4.98 5 6 C2.9375 6.6875 2.9375 6.6875 1 7 C0 2.25 0 2.25 0 0 Z " fill="#939393" transform="translate(320,116)"/>
<path d="M0 0 C2.27795022 2.27795022 3.05219877 3.93787293 4 7 C3.6546935 10.02143183 3.19398174 10.80601826 1 13 C-0.17076699 9.01939223 -1.25749403 5.08378283 -2 1 C-1.34 0.67 -0.68 0.34 0 0 Z " fill="#A8A8A8" transform="translate(159,81)"/>
<path d="M0 0 C1.485 0.99 1.485 0.99 3 2 C3.2487793 3.87939453 3.2487793 3.87939453 3.07421875 6.1328125 C3.01943359 6.93847656 2.96464844 7.74414062 2.90820312 8.57421875 C2.83537109 9.41597656 2.76253906 10.25773437 2.6875 11.125 C2.62626953 11.97449219 2.56503906 12.82398437 2.50195312 13.69921875 C2.34848609 15.80053665 2.17602278 17.90045124 2 20 C1.67 20 1.34 20 1 20 C0.67 13.4 0.34 6.8 0 0 Z " fill="#909090" transform="translate(178,75)"/>
<path d="M0 0 C1.56908377 2.35362565 2.09628504 3.4910648 1.5625 6.3125 C-0.67752244 10.1653386 -3.75007896 12.98469892 -7 16 C-7 12.25940382 -5.63081598 11.38403615 -3.24609375 8.6953125 C-1.25113327 5.98116564 -0.71840758 3.26548901 0 0 Z " fill="#939393" transform="translate(80,293)"/>
<path d="M0 0 C0.66 0.33 1.32 0.66 2 1 C-1.96 4.96 -5.92 8.92 -10 13 C-10 9.06830895 -8.60580385 7.83572772 -6 5 C-5.34 5 -4.68 5 -4 5 C-4 4.34 -4 3.68 -4 3 C-2 1.375 -2 1.375 0 0 Z " fill="#D0D0D0" transform="translate(283,132)"/>
<path d="M0 0 C0.66 0.99 1.32 1.98 2 3 C2.87072072 4.23220174 3.74584102 5.46130459 4.625 6.6875 C5.07101563 7.31011719 5.51703125 7.93273437 5.9765625 8.57421875 C6.31429687 9.04472656 6.65203125 9.51523438 7 10 C6.01 10.33 5.02 10.66 4 11 C1.74754119 8.31158141 0.11786042 6.35358125 -1 3 C-0.67 2.01 -0.34 1.02 0 0 Z " fill="#C8C8C8" transform="translate(114,75)"/>
<path d="M0 0 C2.27147766 4.54295533 2.27147766 4.54295533 1.3125 8.5625 C1.14363281 9.32691406 0.97476562 10.09132813 0.80078125 10.87890625 C0 13 0 13 -3 16 C-2.01 10.72 -1.02 5.44 0 0 Z " fill="#5B5B5B" transform="translate(29,269)"/>
<path d="M0 0 C0.66 0.33 1.32 0.66 2 1 C0.38113585 2.67262717 -1.2452729 4.33795537 -2.875 6 C-3.77992187 6.928125 -4.68484375 7.85625 -5.6171875 8.8125 C-8 11 -8 11 -10 11 C-8.55218207 7.55571735 -6.72305391 5.63869038 -3.875 3.25 C-3.15054688 2.63640625 -2.42609375 2.0228125 -1.6796875 1.390625 C-0.84824219 0.70226562 -0.84824219 0.70226562 0 0 Z " fill="#212121" transform="translate(99,264)"/>
<path d="M0 0 C0.33 0 0.66 0 1 0 C1.66 3.96 2.32 7.92 3 12 C0 9 0 9 -1 7 C-1.66 7 -2.32 7 -3 7 C-1.125 1.125 -1.125 1.125 0 0 Z " fill="#9D9D9D" transform="translate(46,272)"/>
<path d="M0 0 C3.14737182 0.69941596 6.02588876 1.76078698 9 3 C9 3.33 9 3.66 9 4 C5.7 4 2.4 4 -1 4 C-0.67 2.68 -0.34 1.36 0 0 Z " fill="#0A0A0A" transform="translate(273,165)"/>
<path d="M0 0 C0.66 0 1.32 0 2 0 C0.59928507 5.29158974 -2.85487245 7.77478044 -7 11 C-7.66 10.67 -8.32 10.34 -9 10 C-8.071875 9.278125 -7.14375 8.55625 -6.1875 7.8125 C-3.39159002 5.5099859 -1.80139496 3.15244118 0 0 Z " fill="#9C9C9C" transform="translate(144,124)"/>
<path d="M0 0 C0 0.33 0 0.66 0 1 C-1.0725 1.226875 -2.145 1.45375 -3.25 1.6875 C-7.37218701 3.13026545 -8.64414523 4.41910075 -11 8 C-11.625 6.1875 -11.625 6.1875 -12 4 C-10 1 -10 1 -8.25 0.3125 C-5.48083033 -0.0721069 -2.79197653 -0.06345401 0 0 Z " fill="#252525" transform="translate(165,210)"/>
<path d="M0 0 C0.66 0.33 1.32 0.66 2 1 C1.39009109 4.55780196 0.4216319 7.6828589 -1 11 C-1.66 10.01 -2.32 9.02 -3 8 C-2.24451463 5.1524013 -1.31613642 2.63227284 0 0 Z " fill="#505050" transform="translate(292,187)"/>
<path d="M0 0 C0.66 0.33 1.32 0.66 2 1 C0.88200014 2.33920838 -0.24461897 3.67122556 -1.375 5 C-2.00148438 5.7425 -2.62796875 6.485 -3.2734375 7.25 C-4.12808594 8.11625 -4.12808594 8.11625 -5 9 C-5.66 9 -6.32 9 -7 9 C-5.44499019 5.18315774 -2.96404505 2.80804268 0 0 Z " fill="#353535" transform="translate(57,179)"/>
<path d="M0 0 C2.64 0 5.28 0 8 0 C8.33 0.66 8.66 1.32 9 2 C8.34 2 7.68 2 7 2 C7.33 3.32 7.66 4.64 8 6 C2.25 3.375 2.25 3.375 0 0 Z " fill="#414141" transform="translate(284,168)"/>
<path d="M0 0 C0.33 0 0.66 0 1 0 C1.226875 0.94875 1.45375 1.8975 1.6875 2.875 C2.69083714 6.19323388 2.69083714 6.19323388 5.625 7.375 C6.800625 7.684375 6.800625 7.684375 8 8 C7.01 8.495 7.01 8.495 6 9 C5.67 9.66 5.34 10.32 5 11 C0.25027933 7.58994413 0.25027933 7.58994413 -0.875 4.9375 C-1 3 -1 3 0 0 Z " fill="#D1D1D1" transform="translate(133,101)"/>
<path d="M0 0 C0.66 0 1.32 0 2 0 C0.5140084 4.59306496 -1.85014682 7.43569245 -5 11 C-5.66 10.34 -6.32 9.68 -7 9 C-6.57847656 8.51789063 -6.15695313 8.03578125 -5.72265625 7.5390625 C-5.17480469 6.90742188 -4.62695312 6.27578125 -4.0625 5.625 C-3.51722656 4.99851563 -2.97195312 4.37203125 -2.41015625 3.7265625 C-0.93041376 2.04367666 -0.93041376 2.04367666 0 0 Z " fill="#636363" transform="translate(48,240)"/>
<path d="M0 0 C0.33 0 0.66 0 1 0 C1.05429959 1.74965358 1.09292823 3.49979787 1.125 5.25 C1.14820312 6.22453125 1.17140625 7.1990625 1.1953125 8.203125 C0.99862781 11.0196498 0.44568916 12.60949036 -1 15 C-1.97798721 11.20431539 -1.92653069 8.4994001 -1.0625 4.6875 C-0.86785156 3.80449219 -0.67320313 2.92148438 -0.47265625 2.01171875 C-0.31667969 1.34785156 -0.16070312 0.68398437 0 0 Z " fill="#575757" transform="translate(65,228)"/>
<path d="M0 0 C0.33 0.99 0.66 1.98 1 3 C-2.97610294 8.68014706 -2.97610294 8.68014706 -6.17578125 9.6796875 C-7.07876953 9.83824219 -7.07876953 9.83824219 -8 10 C-7.59007812 9.52949219 -7.18015625 9.05898437 -6.7578125 8.57421875 C-6.21898437 7.95160156 -5.68015625 7.32898438 -5.125 6.6875 C-4.59132812 6.07261719 -4.05765625 5.45773438 -3.5078125 4.82421875 C-1.8359553 2.86501788 -1.8359553 2.86501788 0 0 Z " fill="#727272" transform="translate(158,145)"/>
<path d="M0 0 C0.66 0.66 1.32 1.32 2 2 C0.76302083 3.46484375 -0.47395833 4.9296875 -1.7109375 6.39453125 C-2.89201099 7.8655046 -3.95358529 9.43037794 -5 11 C-5.66 10.34 -6.32 9.68 -7 9 C-6.34 9 -5.68 9 -5 9 C-4.9175 8.443125 -4.835 7.88625 -4.75 7.3125 C-3.77389987 4.30285794 -2.04811186 2.37845248 0 0 Z " fill="#3F3F3F" transform="translate(71,308)"/>
<path d="M0 0 C0.79921875 0.19464844 1.5984375 0.38929687 2.421875 0.58984375 C3.32679687 0.82380859 3.32679687 0.82380859 4.25 1.0625 C4.25 1.3925 4.25 1.7225 4.25 2.0625 C2.83376784 2.11697047 1.41691809 2.15550508 0 2.1875 C-0.78890625 2.21070313 -1.5778125 2.23390625 -2.390625 2.2578125 C-4.95731941 2.0453378 -6.5416067 1.34904105 -8.75 0.0625 C-5.47814447 -1.01060858 -3.32052408 -0.83013102 0 0 Z " fill="#7A7A7A" transform="translate(86.75,50.9375)"/>
<path d="M0 0 C2.64 1.65 5.28 3.3 8 5 C7.67 5.66 7.34 6.32 7 7 C3.66666667 5.66666667 0.33333333 4.33333333 -3 3 C-2.01 2.67 -1.02 2.34 0 2 C0 1.34 0 0.68 0 0 Z " fill="#535353" transform="translate(51,37)"/>
<path d="M0 0 C0.93045933 2.55144824 1.08564091 3.74006478 0.22265625 6.359375 C-0.16019531 7.14828125 -0.54304688 7.9371875 -0.9375 8.75 C-1.50791016 9.94882812 -1.50791016 9.94882812 -2.08984375 11.171875 C-2.39019531 11.77515625 -2.69054688 12.3784375 -3 13 C-3.93045933 10.44855176 -4.08564091 9.25993522 -3.22265625 6.640625 C-2.83980469 5.85171875 -2.45695312 5.0628125 -2.0625 4.25 C-1.68222656 3.45078125 -1.30195312 2.6515625 -0.91015625 1.828125 C-0.60980469 1.22484375 -0.30945312 0.6215625 0 0 Z " fill="#777777" transform="translate(37,263)"/>
<path d="M0 0 C0.33 0.66 0.66 1.32 1 2 C1.66 2 2.32 2 3 2 C2.25 6.75 2.25 6.75 0 9 C-0.84454356 5.62182575 -1.10844919 3.32534757 0 0 Z " fill="#1D1D1D" transform="translate(32,265)"/>
<path d="M0 0 C0.66 0.33 1.32 0.66 2 1 C0.63016497 4.16115776 0.0109362 4.9927092 -3 7 C-3.66 6.34 -4.32 5.68 -5 5 C-3.35 3.35 -1.7 1.7 0 0 Z " fill="#C1C1C1" transform="translate(96,263)"/>
<path d="M0 0 C0.33 0 0.66 0 1 0 C0.88490339 1.41750563 0.75746342 2.83401169 0.625 4.25 C0.55539063 5.03890625 0.48578125 5.8278125 0.4140625 6.640625 C-0.01507113 9.085877 -0.78600638 10.84836903 -2 13 C-2.05447047 11.58376784 -2.09300508 10.16691809 -2.125 8.75 C-2.14820312 7.96109375 -2.17140625 7.1721875 -2.1953125 6.359375 C-1.9828378 3.79268059 -1.28654105 2.2083933 0 0 Z " fill="#7B7B7B" transform="translate(32,260)"/>
<path d="M0 0 C4.5073626 0.53027795 7.4539073 2.19611275 11 5 C11 5.99 11 6.98 11 8 C9.53977837 7.04454634 8.08188532 6.08553322 6.625 5.125 C5.81289063 4.59132813 5.00078125 4.05765625 4.1640625 3.5078125 C2 2 2 2 0 0 Z " fill="#888888" transform="translate(268,79)"/>
<path d="M0 0 C1.43655854 -0.08131463 2.8744483 -0.13933559 4.3125 -0.1875 C5.51326172 -0.23970703 5.51326172 -0.23970703 6.73828125 -0.29296875 C9.47851584 0.06198392 10.29171079 0.89366282 12 3 C9.18185434 4.40907283 7.82722796 3.50872691 4.875 2.5625 C3.96492188 2.27503906 3.05484375 1.98757812 2.1171875 1.69140625 C1.41851562 1.46324219 0.71984375 1.23507813 0 1 C0 0.67 0 0.34 0 0 Z " fill="#C3C3C3" transform="translate(279,171)"/>
<path d="M0 0 C0.66 0.66 1.32 1.32 2 2 C-0.41698499 3.94918144 -2.18746401 5.00815254 -5.3359375 4.9765625 C-7.57364473 4.71537901 -9.78327805 4.40084514 -12 4 C-12 3.67 -12 3.34 -12 3 C-11.38511719 2.95101562 -10.77023438 2.90203125 -10.13671875 2.8515625 C-9.32847656 2.77679688 -8.52023438 2.70203125 -7.6875 2.625 C-6.88699219 2.55539063 -6.08648437 2.48578125 -5.26171875 2.4140625 C-2.72775559 2.10435574 -2.72775559 2.10435574 0 0 Z " fill="#404040" transform="translate(171,165)"/>
<path d="M0 0 C0.66 0 1.32 0 2 0 C2 0.66 2 1.32 2 2 C1.34 2 0.68 2 0 2 C-0.28875 2.94875 -0.5775 3.8975 -0.875 4.875 C-2 8 -2 8 -4 10 C-3.52651586 5.8333396 -2.95303159 3.07115285 0 0 Z " fill="#6F6F6F" transform="translate(302,117)"/>
<path d="M0 0 C0.66 0.33 1.32 0.66 2 1 C0.68 2.65 -0.64 4.3 -2 6 C-3.32 5.67 -4.64 5.34 -6 5 C-4.02 3.35 -2.04 1.7 0 0 Z " fill="#C9C9C9" transform="translate(137,234)"/>
<path d="M0 0 C0.66 0.66 1.32 1.32 2 2 C1.375 3.875 1.375 3.875 0 6 C-3.125 7.25 -3.125 7.25 -6 8 C-4.02 5.36 -2.04 2.72 0 0 Z " fill="#6A6A6A" transform="translate(64,256)"/>
<path d="M0 0 C0.99 0.33 1.98 0.66 3 1 C3.33 3.31 3.66 5.62 4 8 C3.67 7.01 3.34 6.02 3 5 C2.01 5 1.02 5 0 5 C0 3.35 0 1.7 0 0 Z " fill="#4F4F4F" transform="translate(334,150)"/>
<path d="M0 0 C0.66 0.33 1.32 0.66 2 1 C2 1.99 2 2.98 2 4 C-1 6.1875 -1 6.1875 -4 8 C-2.87548273 5.0280615 -1.77706209 2.66559313 0 0 Z " fill="#373737" transform="translate(321,86)"/>
<path d="M0 0 C0.66 0.33 1.32 0.66 2 1 C0.25 4.875 0.25 4.875 -2 6 C-2.66 5.34 -3.32 4.68 -4 4 C-2.68 2.68 -1.36 1.36 0 0 Z " fill="#CBCBCB" transform="translate(119,246)"/>
<path d="M0 0 C0.99 0.33 1.98 0.66 3 1 C1.68 2.32 0.36 3.64 -1 5 C-2.32 4.34 -3.64 3.68 -5 3 C-2.6875 1.4375 -2.6875 1.4375 0 0 Z " fill="#AFAFAF" transform="translate(98,185)"/>
<path d="M0 0 C0.66 0.66 1.32 1.32 2 2 C0.35 4.31 -1.3 6.62 -3 9 C-3.33 8.01 -3.66 7.02 -4 6 C-2.0625 2.8125 -2.0625 2.8125 0 0 Z " fill="#6A6A6A" transform="translate(271,127)"/>
<path d="M0 0 C4.75 0.875 4.75 0.875 7 2 C6.34 3.32 5.68 4.64 5 6 C5 5.34 5 4.68 5 4 C4.34 4 3.68 4 3 4 C3 3.34 3 2.68 3 2 C2.01 1.67 1.02 1.34 0 1 C0 0.67 0 0.34 0 0 Z " fill="#EFEFEF" transform="translate(119,85)"/>
<path d="M0 0 C1.98 0 3.96 0 6 0 C5.01 1.485 5.01 1.485 4 3 C0.375 3.6875 0.375 3.6875 -3 4 C-2.01 3.67 -1.02 3.34 0 3 C0 2.01 0 1.02 0 0 Z " fill="#D5D5D5" transform="translate(108,67)"/>
<path d="M0 0 C3.55780196 0.60990891 6.6828589 1.5783681 10 3 C6.25 5 6.25 5 4 5 C3.67 4.01 3.34 3.02 3 2 C2.01 1.34 1.02 0.68 0 0 Z " fill="#7F7F7F" transform="translate(85,39)"/>
</g>
</svg>
